<svg xmlns="http://www.w3.org/2000/svg" xmlns:xlink="http://www.w3.org/1999/xlink" width="200.01mm" height="216.99mm" viewBox="0 0 566.96 615.1"><defs><style>.cls-1,.cls-15{fill:none;}.cls-2{clip-path:url(#clip-path);}.cls-3{fill:#ebebed;}.cls-4{fill:#535b5f;}.cls-5{fill:#1b9dd9;}.cls-6{fill:#069a93;}.cls-7{fill:#0a69b3;}.cls-8{fill:#e50c52;}.cls-9{fill:#7a2382;}.cls-10{fill:#95c122;}.cls-11{fill:#e54916;}.cls-12{fill:#f39208;}.cls-13{fill:#fff;}.cls-14{opacity:0.3;}.cls-15{stroke:#535b5f;stroke-miterlimit:10;stroke-width:1.1px;stroke-dasharray:5.45;}</style><clipPath id="clip-path"><rect class="cls-1" x="138.94" y="139.08" width="288.23" height="288.23"/></clipPath></defs><g id="Layer_2" data-name="Layer 2"><g id="Layer_1-2" data-name="Layer 1"><g id="English"><g class="cls-2"><path class="cls-3" d="M283.05,427.31A144.12,144.12,0,1,0,138.94,283.2,144.12,144.12,0,0,0,283.05,427.31"/><path class="cls-4" d="M255.51,232.22a3.18,3.18,0,1,0,0-6.35H234a3.45,3.45,0,0,0-3.82,3.82v33.46A3.44,3.44,0,0,0,234,267h21.51a3.17,3.17,0,1,0,0-6.34H237.39v-11.4h17.69a3.18,3.18,0,1,0,0-6.35H237.39V232.22Z"/><path class="cls-4" d="M282.81,245.28H273V232.22h9.86c4.06,0,7,2.59,7,6.53s-3,6.53-7,6.53m5.91,5.3c4.5-1.23,8.51-5.11,8.51-11.83,0-7.58-5.3-12.88-13.44-12.88H269.56a3.44,3.44,0,0,0-3.82,3.82v34a3.61,3.61,0,1,0,7.21,0V251.63h8.38L291,265.8a3.84,3.84,0,0,0,3,1.54,3.48,3.48,0,0,0,3.39-3.26,3.57,3.57,0,0,0-.68-2.28Z"/><path class="cls-4" d="M321.51,245.28h-9.86V232.22h9.86c4.06,0,7,2.59,7,6.53s-3,6.53-7,6.53m1-19.41H308.26a3.44,3.44,0,0,0-3.82,3.82v34a3.61,3.61,0,1,0,7.21,0V251.63h10.84c8.57,0,13.44-5.91,13.44-12.88s-4.81-12.88-13.44-12.88"/></g><path class="cls-4" d="M235.58,280.73h9.81v2.21h-7.3v3.71h7.15v2.22h-7.15v4h7.3v2.21h-9.81Z"/><path class="cls-4" d="M254.9,288.56c0-1.61-.81-2.14-2.08-2.14a3.39,3.39,0,0,0-2.66,1.39v7.24H247.9V284.68h2.26v1.42a4.9,4.9,0,0,1,3.65-1.68,3,3,0,0,1,3.35,3.33v7.3H254.9Z"/><path class="cls-4" d="M260.53,292.64v-6h-1.72v-2h1.72v-2.84h2.25v2.84h2.11v2h-2.11v5.44c0,.7.35,1.22,1,1.22a1.42,1.42,0,0,0,1-.37l.54,1.7a3,3,0,0,1-2.13.67A2.39,2.39,0,0,1,260.53,292.64Z"/><path class="cls-4" d="M271.54,284.42c3.12,0,5.11,2.38,5.11,5.65v.53h-8a3.14,3.14,0,0,0,3.3,2.86,4.39,4.39,0,0,0,2.94-1.14l1,1.48a6,6,0,0,1-4.2,1.51,5.45,5.45,0,0,1-.18-10.89ZM268.62,289h5.84a2.77,2.77,0,0,0-2.92-2.74A2.86,2.86,0,0,0,268.62,289Z"/><path class="cls-4" d="M278.89,284.68h2.25v1.52a4.43,4.43,0,0,1,3.37-1.76v2.23a3.51,3.51,0,0,0-.7-.06,3.58,3.58,0,0,0-2.67,1.37v7.07h-2.25Z"/><path class="cls-4" d="M286.34,299V284.68h2.25v1.42a4.13,4.13,0,0,1,3.33-1.68c2.68,0,4.6,2,4.6,5.43s-1.92,5.46-4.6,5.46a4.07,4.07,0,0,1-3.33-1.7V299Zm4.92-12.58a3.38,3.38,0,0,0-2.67,1.39v4.1a3.42,3.42,0,0,0,2.67,1.4c1.78,0,2.92-1.44,2.92-3.46S293,286.42,291.26,286.42Z"/><path class="cls-4" d="M298.79,284.68h2.26v1.52a4.42,4.42,0,0,1,3.37-1.76v2.23a3.4,3.4,0,0,0-3.37,1.31v7.07h-2.26Z"/><path class="cls-4" d="M306,281.57a1.4,1.4,0,1,1,2.8,0,1.4,1.4,0,0,1-2.8,0Zm.28,3.11h2.26v10.37h-2.26Z"/><path class="cls-4" d="M311.55,292.06a5.31,5.31,0,0,0,3.52,1.46c1.35,0,2-.49,2-1.26s-1.1-1.23-2.36-1.51c-1.79-.38-3.91-.85-3.91-3.17,0-1.7,1.46-3.16,4.08-3.16a5.89,5.89,0,0,1,4,1.46l-.94,1.59a4.17,4.17,0,0,0-3.07-1.25c-1.18,0-1.93.43-1.93,1.16s1,1.08,2.25,1.36c1.8.38,4,.9,4,3.35,0,1.82-1.53,3.22-4.32,3.22a6.3,6.3,0,0,1-4.44-1.61Z"/><path class="cls-4" d="M326.17,284.42c3.11,0,5.11,2.38,5.11,5.65v.53h-8a3.14,3.14,0,0,0,3.31,2.86,4.39,4.39,0,0,0,2.94-1.14l1,1.48a6,6,0,0,1-4.21,1.51,5.45,5.45,0,0,1-.17-10.89ZM323.25,289h5.84a2.77,2.77,0,0,0-2.92-2.74A2.86,2.86,0,0,0,323.25,289Z"/><path class="cls-4" d="M244.83,312.44h-2.49v5.35h-2.51V303.47h6.29A4.34,4.34,0,0,1,250.8,308a4,4,0,0,1-3.39,4.2l3.5,5.63H248Zm.95-6.76h-3.44v4.55h3.44a2.28,2.28,0,1,0,0-4.55Z"/><path class="cls-4" d="M257.24,307.16c3.12,0,5.11,2.38,5.11,5.65v.53h-8a3.14,3.14,0,0,0,3.3,2.86,4.39,4.39,0,0,0,2.94-1.14l1,1.48a6,6,0,0,1-4.2,1.51,5.45,5.45,0,0,1-.18-10.89Zm-2.92,4.59h5.84a2.77,2.77,0,0,0-2.92-2.74A2.86,2.86,0,0,0,254.32,311.75Z"/><path class="cls-4" d="M264.72,314.8a5.31,5.31,0,0,0,3.52,1.46c1.35,0,2-.49,2-1.26s-1.1-1.23-2.36-1.51c-1.79-.38-3.91-.85-3.91-3.17,0-1.7,1.46-3.16,4.08-3.16a5.89,5.89,0,0,1,4,1.46l-.94,1.59a4.17,4.17,0,0,0-3.07-1.25c-1.18,0-1.93.43-1.93,1.16s1,1.08,2.25,1.36c1.8.38,4,.9,4,3.35,0,1.82-1.53,3.22-4.32,3.22a6.3,6.3,0,0,1-4.44-1.61Z"/><path class="cls-4" d="M274.08,312.59a5.34,5.34,0,1,1,5.32,5.46A5.19,5.19,0,0,1,274.08,312.59Zm8.33,0c0-1.82-1.07-3.43-3-3.43s-3,1.61-3,3.43,1.07,3.46,3,3.46S282.41,314.44,282.41,312.59Z"/><path class="cls-4" d="M294,316.41a5,5,0,0,1-3.68,1.64c-2.23,0-3.32-1.16-3.32-3.29v-7.34h2.25V314c0,1.61.82,2.1,2.08,2.1A3.46,3.46,0,0,0,294,314.7v-7.28h2.25v10.37H294Z"/><path class="cls-4" d="M299.2,307.42h2.26v1.52a4.43,4.43,0,0,1,3.37-1.76v2.24a2.94,2.94,0,0,0-.71-.07,3.59,3.59,0,0,0-2.66,1.37v7.07H299.2Z"/><path class="cls-4" d="M311.38,307.16a4.65,4.65,0,0,1,4,1.85l-1.48,1.37a2.79,2.79,0,0,0-2.39-1.22,3.46,3.46,0,0,0,0,6.89,2.84,2.84,0,0,0,2.39-1.22l1.48,1.37a4.65,4.65,0,0,1-4,1.85,5.45,5.45,0,0,1,0-10.89Z"/><path class="cls-4" d="M321.94,307.16c3.11,0,5.11,2.38,5.11,5.65v.53h-8a3.14,3.14,0,0,0,3.31,2.86,4.39,4.39,0,0,0,2.94-1.14l1,1.48a6,6,0,0,1-4.21,1.51,5.45,5.45,0,0,1-.17-10.89ZM319,311.75h5.84a2.77,2.77,0,0,0-2.92-2.74A2.86,2.86,0,0,0,319,311.75Z"/><path class="cls-4" d="M242.64,326.21h6.29a4.49,4.49,0,1,1,0,9h-3.78v5.35h-2.51Zm6,2.21h-3.44V333h3.44a2.28,2.28,0,1,0,0-4.55Z"/><path class="cls-4" d="M255.63,326.21h2.26v14.32h-2.26Z"/><path class="cls-4" d="M267.14,339.41a4.37,4.37,0,0,1-3.35,1.38,3.44,3.44,0,0,1-3.6-3.44,3.34,3.34,0,0,1,3.6-3.37,4.28,4.28,0,0,1,3.35,1.33v-1.55c0-1.2-1-1.93-2.42-1.93a4.24,4.24,0,0,0-3.07,1.31l-.93-1.56a6.18,6.18,0,0,1,4.36-1.68c2.3,0,4.32,1,4.32,3.76v6.87h-2.26Zm0-2.81a3,3,0,0,0-2.47-1.07,1.88,1.88,0,1,0,0,3.71,3,3,0,0,0,2.47-1.07Z"/><path class="cls-4" d="M279.32,334c0-1.61-.82-2.14-2.09-2.14a3.41,3.41,0,0,0-2.66,1.39v7.24h-2.25V330.16h2.25v1.42a4.9,4.9,0,0,1,3.65-1.68,3,3,0,0,1,3.35,3.33v7.3h-2.25Z"/><path class="cls-4" d="M291.49,334c0-1.61-.81-2.14-2.08-2.14a3.39,3.39,0,0,0-2.66,1.39v7.24h-2.26V330.16h2.26v1.42a4.89,4.89,0,0,1,3.65-1.68,3,3,0,0,1,3.35,3.33v7.3h-2.26Z"/><path class="cls-4" d="M296.39,327a1.4,1.4,0,1,1,1.39,1.4A1.4,1.4,0,0,1,296.39,327Zm.28,3.12h2.25v10.37h-2.25Z"/><path class="cls-4" d="M308.84,334c0-1.61-.81-2.14-2.08-2.14a3.39,3.39,0,0,0-2.66,1.39v7.24h-2.26V330.16h2.26v1.42a4.87,4.87,0,0,1,3.65-1.68,3,3,0,0,1,3.35,3.33v7.3h-2.26Z"/><path class="cls-4" d="M314.94,341.56a4,4,0,0,0,3.29,1.33c1.48,0,3.07-.69,3.07-2.81v-1.25a4.23,4.23,0,0,1-3.33,1.72c-2.64,0-4.6-1.91-4.6-5.33s1.94-5.32,4.6-5.32a4.13,4.13,0,0,1,3.33,1.7v-1.44h2.25V340c0,3.74-2.77,4.75-5.32,4.75a5.84,5.84,0,0,1-4.34-1.55Zm6.36-8.27a3.38,3.38,0,0,0-2.67-1.39c-1.78,0-2.92,1.33-2.92,3.32s1.14,3.33,2.92,3.33a3.38,3.38,0,0,0,2.67-1.39Z"/><path class="cls-5" d="M287.18,408.5V516.39a9.41,9.41,0,0,0,9.95,9.39,242,242,0,0,0,147.4-61.16,9.42,9.42,0,0,0,.42-13.69l-76.21-76.22a47.78,47.78,0,0,0-52.07-10.35h0A47.77,47.77,0,0,0,287.18,408.5Z"/><path class="cls-6" d="M197.37,374.71l-76.21,76.22a9.4,9.4,0,0,0,.42,13.69A242,242,0,0,0,269,525.78a9.41,9.41,0,0,0,10-9.39V408.5a47.76,47.76,0,0,0-29.5-44.14h0A47.76,47.76,0,0,0,197.37,374.71Z"/><path class="cls-7" d="M374.57,368.88l76.22,76.21a9.4,9.4,0,0,0,13.69-.42,242.06,242.06,0,0,0,61.16-147.39,9.41,9.41,0,0,0-9.39-10H408.35a47.76,47.76,0,0,0-44.13,29.49h0A47.76,47.76,0,0,0,374.57,368.88Z"/><path class="cls-8" d="M368.74,191.68,445,115.46a9.42,9.42,0,0,0-.42-13.69,242.07,242.07,0,0,0-147.4-61.16A9.41,9.41,0,0,0,287.18,50V157.9A47.76,47.76,0,0,0,316.67,202h0A47.78,47.78,0,0,0,368.74,191.68Z"/><path class="cls-9" d="M364.21,249.58h0a47.79,47.79,0,0,0,44.14,29.49h107.9a9.41,9.41,0,0,0,9.39-9.95,242.07,242.07,0,0,0-61.16-147.4,9.42,9.42,0,0,0-13.69-.42l-76.22,76.21A47.8,47.8,0,0,0,364.21,249.58Z"/><path class="cls-10" d="M157.75,287.32H49.86a9.41,9.41,0,0,0-9.39,10,242,242,0,0,0,61.16,147.39,9.4,9.4,0,0,0,13.69.42l76.22-76.21a47.76,47.76,0,0,0,10.35-52.06h0A47.77,47.77,0,0,0,157.75,287.32Z"/><path class="cls-11" d="M278.93,157.9V50a9.41,9.41,0,0,0-10-9.39,242.06,242.06,0,0,0-147.39,61.16,9.4,9.4,0,0,0-.42,13.69l76.21,76.22A47.77,47.77,0,0,0,249.44,202h0A47.76,47.76,0,0,0,278.93,157.9Z"/><path class="cls-12" d="M191.54,197.51,115.32,121.3a9.42,9.42,0,0,0-13.69.42,242,242,0,0,0-61.16,147.4,9.41,9.41,0,0,0,9.39,9.95H157.75a47.77,47.77,0,0,0,44.14-29.49h0A47.78,47.78,0,0,0,191.54,197.51Z"/><path class="cls-13" d="M147,104.48a5.58,5.58,0,0,0,4.27-1c1.2-.88,1.36-1.87.93-2.46-.56-.77-1.64-.37-3,.22-2,.85-4.44,2-6.12-.32-1.26-1.7-.8-4.17,1.61-5.94a7.07,7.07,0,0,1,5-1.51l0,2.49A5.38,5.38,0,0,0,146,97c-1,.72-1.19,1.53-.74,2.15s1.53.27,2.91-.32c2-.86,4.49-1.94,6.17.34,1.37,1.87,1.08,4.26-1.69,6.3a7.31,7.31,0,0,1-5.54,1.56Z"/><path class="cls-13" d="M156.17,91.17c2.29-1.51,5-.83,6.65,1.68l.29.45-5.7,3.78a2.49,2.49,0,0,0,3.39.31,3.75,3.75,0,0,0,1.54-2.12l1.76.71a5.74,5.74,0,0,1-2.46,3.16,4.83,4.83,0,1,1-5.47-8Zm.3,4.56,3.78-2.51a2.13,2.13,0,0,0-3-.44A2.21,2.21,0,0,0,156.47,95.73Z"/><path class="cls-13" d="M161.85,87.79l2.07-1.26.66,1.08a3.89,3.89,0,0,1,1.74-2.78l1.23,2a2.63,2.63,0,0,0-.61.28,3.06,3.06,0,0,0-1.39,2.07l3.16,5.2-2.07,1.25Z"/><path class="cls-13" d="M166.77,84.76,169,83.5l5.22,4.42-1-6.76,2.28-1.28,1.26,9.85L174.49,91Z"/><path class="cls-13" d="M175.15,77a1.45,1.45,0,1,1,1.95.62A1.45,1.45,0,0,1,175.15,77Zm1.5,2.37,2.15-1.11L183,86.41l-2.16,1.11Z"/><path class="cls-13" d="M184.89,75a4.27,4.27,0,0,1,4-.06l-.79,2a2.22,2.22,0,0,0-2.18-.06,2.69,2.69,0,0,0,2.3,4.84A2.35,2.35,0,0,0,189.55,80l2.06.64A4.25,4.25,0,0,1,189,83.72,4.83,4.83,0,1,1,184.89,75Z"/><path class="cls-13" d="M193.73,71c2.53-1.07,5.05.1,6.22,2.88l.21.49-6.3,2.66a2.47,2.47,0,0,0,3.27.94,3.73,3.73,0,0,0,1.91-1.8l1.59,1a5.77,5.77,0,0,1-3,2.66,4.84,4.84,0,1,1-3.9-8.85Zm-.55,4.54,4.18-1.77a2.13,2.13,0,0,0-2.88-1A2.21,2.21,0,0,0,193.18,75.58Z"/><path class="cls-13" d="M214.66,71l-5.38,1.81-.06,2.33-2.82.95L207,62.45l3.22-1.08,8.69,10.49-2.8.94Zm-5.44-.64,4-1.35-3.84-4.86Z"/><path class="cls-13" d="M219.32,68.8a5.28,5.28,0,0,0,3.4.34c1-.28,1.39-.76,1.23-1.31s-1-.63-2.07-.55c-1.6.14-3.67.32-4.27-1.78-.41-1.49.52-3.16,2.85-3.82a6,6,0,0,1,3.92.2l-.49,1.87a3.85,3.85,0,0,0-2.91-.29c-.84.24-1.31.7-1.16,1.22s.91.55,2,.47c1.61-.13,3.76-.3,4.38,1.9.46,1.61-.57,3.23-3,3.92a6.16,6.16,0,0,1-4.35-.26Z"/><path class="cls-13" d="M228.07,66.39a5.3,5.3,0,0,0,3.39.49c1-.24,1.42-.71,1.28-1.27s-1-.66-2.05-.62c-1.61.06-3.68.17-4.18-2-.36-1.5.64-3.13,3-3.69a5.83,5.83,0,0,1,3.9.37l-.56,1.83a3.91,3.91,0,0,0-2.9-.4c-.85.2-1.33.65-1.21,1.17s.89.59,1.94.55c1.61-.06,3.76-.15,4.29,2.08.39,1.63-.71,3.2-3.19,3.79a6.25,6.25,0,0,1-4.34-.43Z"/><path class="cls-13" d="M239.51,57.18c2.7-.52,4.92,1.15,5.49,4.11l.1.52-6.72,1.29a2.49,2.49,0,0,0,3,1.6,3.76,3.76,0,0,0,2.24-1.36L245,64.67a5.72,5.72,0,0,1-3.48,2,4.83,4.83,0,1,1-2-9.46ZM238,61.5l4.46-.86a2.12,2.12,0,0,0-2.61-1.57A2.21,2.21,0,0,0,238,61.5Z"/><path class="cls-13" d="M247.57,63l-.72-4.74-1.51.23L245,56.4l1.5-.23-.38-2.48,2.42-.37.38,2.48,1.84-.28.32,2.09-1.84.29.63,4.1c.08.57.45,1,1,.88a1.39,1.39,0,0,0,.79-.39l.78,1.73a3.06,3.06,0,0,1-1.91.89A2.31,2.31,0,0,1,247.57,63Z"/><path class="cls-13" d="M160.55,113.62l2.65,9.46-.94.71-8.37-5.14,5.51,7.3-2.17,1.63-7.65-10.15,3-2.28,7.24,4.47-2.31-8.19,3-2.29,7.65,10.15-2.17,1.64Z"/><path class="cls-13" d="M174.22,114.24a3.83,3.83,0,0,1-1.79,2.59,3.07,3.07,0,0,1-4.35-.79,2.91,2.91,0,0,1,1.07-4.21,3.69,3.69,0,0,1,3-.66l-.7-1.07c-.51-.78-1.51-.85-2.53-.18a3.84,3.84,0,0,0-1.65,2.38l-1.66-.85a6.07,6.07,0,0,1,2.57-3.42c1.75-1.15,3.82-1.5,5.27.71l3.27,5-2,1.33Zm-1.32-2a2.39,2.39,0,0,0-2.06.39,1.41,1.41,0,1,0,1.5,2.3,2.4,2.4,0,0,0,1.19-1.74Z"/><path class="cls-13" d="M181.23,104.58a1.49,1.49,0,0,0-2.33-.63,2.59,2.59,0,0,0-1.26,2l3.12,5.35-2.09,1.22-4.65-8,2.1-1.22.6,1a4.25,4.25,0,0,1,2.06-2.86,2.68,2.68,0,0,1,4.07,1l3.28,5.61L184,109.39Z"/><path class="cls-13" d="M192.55,103.73a3.84,3.84,0,0,1-2.05,2.39,3.08,3.08,0,0,1-4.25-1.25,2.92,2.92,0,0,1,1.5-4.07,3.73,3.73,0,0,1,3.11-.34l-.58-1.13c-.43-.83-1.42-1-2.51-.45a3.93,3.93,0,0,0-1.89,2.2l-1.55-1a6,6,0,0,1,2.91-3.13c1.86-1,4-1.1,5.17,1.26l2.72,5.28L193,104.58Zm-1.1-2.13a2.43,2.43,0,0,0-2.1.18,1.41,1.41,0,1,0,1.26,2.44,2.44,2.44,0,0,0,1.36-1.61Z"/><path class="cls-13" d="M198.21,102.68a3.65,3.65,0,0,0,3.09-.13,2.25,2.25,0,0,0,1.36-3.16l-.38-.86a3.58,3.58,0,0,1-2,2.49c-2.1.94-4.37.19-5.62-2.61s-.34-5,1.78-5.94a3.53,3.53,0,0,1,3.16.12l-.48-1.08,2.23-1,3.51,7.82c1.44,3.2-.68,5.09-2.75,6a5.57,5.57,0,0,1-4.17.38Zm2.13-8.46a2.62,2.62,0,0,0-2.32-.1,2.54,2.54,0,0,0,2.07,4.62,2.66,2.66,0,0,0,1.47-1.8Z"/><path class="cls-13" d="M207.68,87.75c2.56-1,5,.26,6.13,3.06l.19.5-6.38,2.47a2.47,2.47,0,0,0,3.24,1,3.75,3.75,0,0,0,2-1.73l1.56,1.07a5.76,5.76,0,0,1-3.07,2.56,4.83,4.83,0,1,1-3.63-9ZM207,92.26l4.24-1.63a2.14,2.14,0,0,0-2.85-1.09A2.22,2.22,0,0,0,207,92.26Z"/><path class="cls-13" d="M226,85.35a1.27,1.27,0,0,0-1.74-1,2.44,2.44,0,0,0-1.5,1.59l1.85,5.93-2.33.72-1.73-5.54a1.28,1.28,0,0,0-1.75-1,2.46,2.46,0,0,0-1.49,1.61l1.84,5.91-2.31.72-2.74-8.78,2.31-.72.36,1.14a4,4,0,0,1,2.44-2.26,2.44,2.44,0,0,1,2.94.84A3.89,3.89,0,0,1,224.66,82a2.45,2.45,0,0,1,3.41,1.85l2,6.34-2.32.73Z"/><path class="cls-13" d="M234,79.55c2.67-.64,5,.92,5.67,3.85l.12.52-6.65,1.6A2.48,2.48,0,0,0,236.23,87a3.77,3.77,0,0,0,2.17-1.46l1.41,1.27a5.79,5.79,0,0,1-3.39,2.13A4.83,4.83,0,1,1,234,79.55Zm-1.28,4.38,4.41-1.06a2.13,2.13,0,0,0-2.68-1.45A2.22,2.22,0,0,0,232.73,83.93Z"/><path class="cls-13" d="M247.35,80.72a1.5,1.5,0,0,0-2-1.38,2.61,2.61,0,0,0-1.86,1.45l1.12,6.09-2.38.44-1.67-9,2.38-.44.22,1.18a4.18,4.18,0,0,1,2.91-2,2.67,2.67,0,0,1,3.47,2.34l1.18,6.39-2.38.44Z"/><path class="cls-13" d="M253.16,83.1l-.67-4.75-1.51.21-.29-2.09,1.5-.22-.35-2.49,2.42-.34.35,2.49,1.85-.26.3,2.1-1.85.26.57,4.11c.08.57.45,1,1,.89a1.33,1.33,0,0,0,.79-.38l.76,1.74a3,3,0,0,1-1.91.86A2.3,2.3,0,0,1,253.16,83.1Z"/><path class="cls-13" d="M60.11,256a5.57,5.57,0,0,0,2.26-3.77c.2-1.47-.39-2.28-1.11-2.38-.95-.13-1.42.92-2,2.32-.76,2-1.69,4.56-4.5,4.17-2.1-.29-3.55-2.34-3.14-5.3a7.13,7.13,0,0,1,2.44-4.67l1.76,1.77A5.36,5.36,0,0,0,54,251.59c-.17,1.21.27,1.92,1,2s1.27-.9,1.81-2.31c.76-2,1.75-4.57,4.54-4.18,2.3.32,3.81,2.2,3.34,5.6A7.34,7.34,0,0,1,62,257.8Z"/><path class="cls-13" d="M65.46,239.74a4.31,4.31,0,0,1,.76,3.45,2.64,2.64,0,0,1-3.4,2.38l-6.42-1.22.45-2.38,5.49,1a1.48,1.48,0,0,0,2-1.35,2.73,2.73,0,0,0-.64-2.26l-6.12-1.16.45-2.38,9,1.72L66.6,240Z"/><path class="cls-13" d="M70.94,236.21l-12.36-3,.57-2.35,1.13.27a3.54,3.54,0,0,1-.69-3.08c.56-2.3,2.66-3.56,5.65-2.83s4.3,2.8,3.74,5.1a3.5,3.5,0,0,1-2,2.42l4.55,1.1Zm-9.43-6.91a2.7,2.7,0,0,0,.53,2.27l3.17.76a2.73,2.73,0,0,0,1.5-1.77,2.7,2.7,0,0,0-5.2-1.26Z"/><path class="cls-13" d="M73.52,225.73l-12.19-3.6.69-2.32,1.11.33A3.55,3.55,0,0,1,62.6,217c.67-2.26,2.84-3.41,5.78-2.54s4.16,3,3.49,5.28a3.51,3.51,0,0,1-2.16,2.32l4.5,1.33Zm-9.07-7.37a2.73,2.73,0,0,0,.42,2.29l3.12.93a2.78,2.78,0,0,0,1.6-1.7,2.71,2.71,0,0,0-5.14-1.52Z"/><path class="cls-13" d="M61.33,210.12l.77-2.3,12.05,4-.77,2.29Z"/><path class="cls-13" d="M76.63,209.5a1.21,1.21,0,0,0-.18-1.43l-.61-.59-10.06.25.9-2.43,6.84,0-5.16-4.48.91-2.45,8.53,7.78a3.36,3.36,0,0,1,.88,4.05,6.47,6.47,0,0,1-.55,1.08l-1.91-1.09A2,2,0,0,0,76.63,209.5Z"/><path class="cls-13" d="M74.08,194.11a6.43,6.43,0,0,1-3.2-8.8A5.85,5.85,0,0,1,76,181.68l.07,2.59a3.5,3.5,0,0,0-3,2,4.18,4.18,0,0,0,7.59,3.47,3.41,3.41,0,0,0-.4-3.57l2-1.65a5.9,5.9,0,0,1,.58,6.22A6.43,6.43,0,0,1,74.08,194.11Z"/><path class="cls-13" d="M83.47,176.41a1.47,1.47,0,0,0-2.28.74,2.64,2.64,0,0,0,0,2.36l5.48,2.87-1.12,2.15-11.26-5.9,1.13-2.15,4.16,2.19a4.25,4.25,0,0,1,.24-3.53,2.66,2.66,0,0,1,4-1.31l5.78,3L88.43,179Z"/><path class="cls-13" d="M92.63,169.67a3.8,3.8,0,0,1-.46,3.11A3.07,3.07,0,0,1,87.92,174a2.92,2.92,0,0,1-.91-4.25,3.75,3.75,0,0,1,2.45-1.95l-1.1-.64c-.81-.48-1.74-.1-2.36,1a3.85,3.85,0,0,0-.42,2.86l-1.86,0a6,6,0,0,1,.78-4.2c1.07-1.81,2.77-3,5-1.7l5.13,3-1.23,2.09Zm-2.07-1.22a2.44,2.44,0,0,0-1.68,1.27,1.51,1.51,0,0,0,.33,2.2c.73.44,1.56,0,2-.81a2.43,2.43,0,0,0,.3-2.08Z"/><path class="cls-13" d="M85.65,159.9a1.45,1.45,0,1,1,2-.45A1.46,1.46,0,0,1,85.65,159.9Zm2.5,1.29,1.29-2,7.78,4.93-1.3,2Z"/><path class="cls-13" d="M97.36,153.86a1.49,1.49,0,0,0-2.37.43,2.61,2.61,0,0,0-.29,2.34l5.11,3.51-1.37,2-7.6-5.21,1.37-2,1,.68a4.27,4.27,0,0,1,.65-3.47,2.67,2.67,0,0,1,4.11-.8l5.36,3.68L102,157Z"/><path class="cls-13" d="M76.25,251.71l8.6,4.75-.15,1.17L75.16,260l9.07,1.19-.35,2.68-12.6-1.65.49-3.76,8.26-2-7.45-4.09.49-3.78,12.6,1.65-.35,2.71Z"/><path class="cls-13" d="M86.27,242.37a3.77,3.77,0,0,1,.59,3.09A3.06,3.06,0,0,1,83.25,248,2.92,2.92,0,0,1,81,244.3a3.73,3.73,0,0,1,1.67-2.64l-1.25-.25c-.91-.18-1.67.48-1.9,1.68a3.84,3.84,0,0,0,.54,2.85l-1.77.58a6.08,6.08,0,0,1-.64-4.23c.41-2,1.61-3.78,4.21-3.26l5.83,1.15-.47,2.38Zm-2.35-.46a2.37,2.37,0,0,0-1.17,1.75c-.18.93.15,1.79,1,2s1.48-.51,1.66-1.44a2.4,2.4,0,0,0-.4-2.06Z"/><path class="cls-13" d="M84.29,230.61a1.5,1.5,0,0,0-2.08,1.23,2.64,2.64,0,0,0,.54,2.3l6,1.52-.6,2.34-8.92-2.26.59-2.34,1.17.29a4.19,4.19,0,0,1-.6-3.47A2.68,2.68,0,0,1,84,228l6.3,1.59L89.69,232Z"/><path class="cls-13" d="M91.63,221.94a3.8,3.8,0,0,1,.26,3.13A3.07,3.07,0,0,1,88,227.22a2.9,2.9,0,0,1-1.85-3.92,3.7,3.7,0,0,1,1.94-2.45l-1.22-.38c-.89-.28-1.71.3-2.08,1.47a3.9,3.9,0,0,0,.24,2.89l-1.81.39a6,6,0,0,1-.19-4.27c.62-2,2-3.59,4.52-2.8l5.68,1.76-.72,2.31Zm-2.29-.71A2.44,2.44,0,0,0,88,222.84a1.51,1.51,0,0,0,.82,2.07c.82.26,1.52-.34,1.8-1.25a2.41,2.41,0,0,0-.18-2.1Z"/><path class="cls-13" d="M94.85,217.15a3.63,3.63,0,0,0,2.07-2.3,2.25,2.25,0,0,0-1.3-3.18l-.87-.33a3.62,3.62,0,0,1,.37,3.17c-.8,2.16-2.93,3.24-5.81,2.18s-3.79-3.25-3-5.43a3.55,3.55,0,0,1,2.3-2.18l-1.1-.41.84-2.29,8,3c3.29,1.22,3.16,4,2.37,6.18a5.59,5.59,0,0,1-2.66,3.24Zm-4.54-7.45a2.65,2.65,0,0,0-1.7,1.59,2.54,2.54,0,0,0,4.75,1.76,2.65,2.65,0,0,0-.26-2.31Z"/><path class="cls-13" d="M90.84,199.93c1.09-2.51,3.72-3.41,6.48-2.22l.49.22L95.1,204.2a2.48,2.48,0,0,0,3-1.58,3.77,3.77,0,0,0,.13-2.62l1.86-.36a5.76,5.76,0,0,1-.33,4,4.83,4.83,0,1,1-8.93-3.7Zm2.74,3.66,1.8-4.16a2.12,2.12,0,0,0-2.77,1.27A2.2,2.2,0,0,0,93.58,203.59Z"/><path class="cls-13" d="M102,185.2a1.28,1.28,0,0,0-1.94.55,2.46,2.46,0,0,0,.08,2.18l5.53,2.84-1.12,2.17-5.17-2.66a1.27,1.27,0,0,0-1.93.55,2.45,2.45,0,0,0,.1,2.19l5.5,2.83-1.1,2.15-8.19-4.2,1.11-2.15,1.07.54a4,4,0,0,1,.1-3.33,2.44,2.44,0,0,1,2.66-1.5,3.93,3.93,0,0,1-.05-3.58,2.46,2.46,0,0,1,3.72-1.13l5.91,3-1.12,2.17Z"/><path class="cls-13" d="M103.47,175.39c1.41-2.35,4.13-2.89,6.72-1.34l.45.27-3.52,5.87a2.49,2.49,0,0,0,3.19-1.17,3.76,3.76,0,0,0,.48-2.58l1.89-.11a5.72,5.72,0,0,1-.86,3.91,4.83,4.83,0,1,1-8.35-4.85Zm2.23,4,2.33-3.89a2.13,2.13,0,0,0-2.91.89A2.21,2.21,0,0,0,105.7,179.38Z"/><path class="cls-13" d="M113.65,166.71a1.5,1.5,0,0,0-2.37.45,2.63,2.63,0,0,0-.28,2.35l5.14,3.46-1.36,2-7.63-5.15,1.36-2,1,.67a4.25,4.25,0,0,1,.62-3.47,2.68,2.68,0,0,1,4.11-.83l5.38,3.63-1.35,2Z"/><path class="cls-13" d="M119.41,164.26l-3.86-2.86-.91,1.23-1.7-1.26.91-1.22-2-1.5,1.45-2,2,1.5,1.11-1.51,1.7,1.26-1.11,1.5,3.34,2.47a.88.88,0,0,0,1.31-.07,1.34,1.34,0,0,0,.28-.83l1.78.67a3,3,0,0,1-.73,2A2.29,2.29,0,0,1,119.41,164.26Z"/><path class="cls-13" d="M335.68,55.73l8.73,2.18-.56,2.26-6.11-1.53-.66,2.69,6,1.48-.56,2.26-6-1.49-1.28,5.14-2.62-.65Z"/><path class="cls-13" d="M345.53,61.91l2.33.67-2.55,8.84L343,70.75Zm.54-2.76a1.45,1.45,0,1,1,1,1.79A1.45,1.45,0,0,1,346.07,59.15Z"/><path class="cls-13" d="M355.15,68.67a1.49,1.49,0,0,0-1.09-2.15,2.59,2.59,0,0,0-2.32.38l-1.92,5.89-2.3-.75,2.85-8.75,2.3.75-.37,1.14a4.18,4.18,0,0,1,3.5-.36,2.68,2.68,0,0,1,1.94,3.71l-2,6.18-2.3-.75Z"/><path class="cls-13" d="M363.33,76.53a3.81,3.81,0,0,1-3.15.07,3.07,3.07,0,0,1-1.91-4,2.91,2.91,0,0,1,4-1.6,3.72,3.72,0,0,1,2.33,2.08l.46-1.19c.32-.88-.21-1.73-1.35-2.16a3.86,3.86,0,0,0-2.89.06L360.56,68a6.06,6.06,0,0,1,4.28.07c2,.75,3.46,2.21,2.52,4.69l-2.11,5.56L363,77.42Zm.85-2.24a2.42,2.42,0,0,0-1.53-1.44,1.52,1.52,0,0,0-2.12.68c-.3.81.25,1.55,1.14,1.88a2.4,2.4,0,0,0,2.1-.06Z"/><path class="cls-13" d="M375.28,76.51a1.5,1.5,0,0,0-.87-2.25,2.62,2.62,0,0,0-2.36.16l-2.47,5.68-2.22-1L371,70.69l2.22,1-.48,1.1a4.2,4.2,0,0,1,3.53,0,2.67,2.67,0,0,1,1.57,3.88l-2.6,6-2.22-1Z"/><path class="cls-13" d="M385.3,77a4.26,4.26,0,0,1,2.53,3.09l-2.07.64A2.24,2.24,0,0,0,384.45,79a2.68,2.68,0,0,0-2.36,4.8,2.3,2.3,0,0,0,2.18,0l.77,2a4.26,4.26,0,0,1-4-.1A4.83,4.83,0,1,1,385.3,77Z"/><path class="cls-13" d="M390,79.64l2.14,1.14-4.33,8.12-2.14-1.13Zm1.1-2.59a1.45,1.45,0,1,1,.6,2A1.46,1.46,0,0,1,391.14,77.05Z"/><path class="cls-13" d="M395.12,91.9a3.79,3.79,0,0,1-3.11-.43,3.06,3.06,0,0,1-1.25-4.24,2.91,2.91,0,0,1,4.24-.94,3.66,3.66,0,0,1,2,2.43l.64-1.11c.47-.81.08-1.74-1-2.35a3.87,3.87,0,0,0-2.87-.4l0-1.86a6,6,0,0,1,4.21.76c1.82,1,3.06,2.73,1.74,5l-3,5.15-2.09-1.21Zm1.21-2.08A2.45,2.45,0,0,0,395,88.16a1.51,1.51,0,0,0-2.2.34c-.43.74,0,1.56.83,2a2.39,2.39,0,0,0,2.08.27Z"/><path class="cls-13" d="M405.42,84.38l2.05,1.28-6.72,10.79-2.06-1.28Z"/><path class="cls-13" d="M319.25,77.16l-4.94,8.49-1.16-.18L311,75.89l-1.4,9-2.67-.42L308.86,72l3.75.58,1.85,8.3,4.25-7.36,3.77.58-1.93,12.56-2.7-.41Z"/><path class="cls-13" d="M328.33,87.39a3.8,3.8,0,0,1-3.1.52,3.08,3.08,0,0,1-2.47-3.67,2.91,2.91,0,0,1,3.76-2.17,3.73,3.73,0,0,1,2.61,1.73l.27-1.25c.2-.91-.44-1.68-1.64-1.94a3.82,3.82,0,0,0-2.85.48l-.55-1.78a6,6,0,0,1,4.24-.55c2,.46,3.75,1.69,3.17,4.28l-1.28,5.8-2.37-.52Zm.52-2.35a2.45,2.45,0,0,0-1.72-1.2c-.94-.2-1.81.11-2,1s.47,1.49,1.4,1.7a2.43,2.43,0,0,0,2.07-.36Z"/><path class="cls-13" d="M340.14,85.68A1.5,1.5,0,0,0,339,83.57a2.63,2.63,0,0,0-2.31.49L335,90l-2.34-.65,2.47-8.87,2.33.65-.32,1.15a4.21,4.21,0,0,1,3.48-.51,2.68,2.68,0,0,1,2.1,3.63L341,91.69,338.65,91Z"/><path class="cls-13" d="M348.66,93.21a3.76,3.76,0,0,1-3.14.19,3.06,3.06,0,0,1-2.07-3.91,2.91,2.91,0,0,1,4-1.76,3.76,3.76,0,0,1,2.41,2l.4-1.21c.3-.88-.26-1.71-1.42-2.1a3.83,3.83,0,0,0-2.89.17l-.36-1.82a6,6,0,0,1,4.28-.1c2,.67,3.54,2.08,2.7,4.59l-1.89,5.63-2.3-.77Zm.76-2.27a2.42,2.42,0,0,0-1.59-1.38,1.5,1.5,0,0,0-2.08.76c-.28.82.31,1.54,1.21,1.84a2.42,2.42,0,0,0,2.1-.14Z"/><path class="cls-13" d="M353.34,96.53a3.68,3.68,0,0,0,2.26,2.13,2.25,2.25,0,0,0,3.21-1.23l.34-.87a3.57,3.57,0,0,1-3.17.3c-2.14-.85-3.18-3-2.05-5.85s3.34-3.72,5.5-2.86a3.52,3.52,0,0,1,2.12,2.35l.44-1.1,2.26.9-3.15,8c-1.3,3.26-4.13,3.06-6.24,2.23a5.55,5.55,0,0,1-3.17-2.74Zm7.55-4.36a2.61,2.61,0,0,0-1.54-1.74,2.54,2.54,0,0,0-1.87,4.71,2.68,2.68,0,0,0,2.32-.21Z"/><path class="cls-13" d="M370.66,92.93c2.5,1.14,3.33,3.79,2.07,6.53l-.22.48-6.21-2.85a2.47,2.47,0,0,0,1.51,3,3.78,3.78,0,0,0,2.62.2l.31,1.86a5.78,5.78,0,0,1-4-.42,4.83,4.83,0,1,1,3.9-8.84ZM367,95.58l4.12,1.9a2.14,2.14,0,0,0-1.21-2.8A2.21,2.21,0,0,0,367,95.58Z"/><path class="cls-13" d="M385.13,104.39a1.28,1.28,0,0,0-.5-2,2.49,2.49,0,0,0-2.19,0l-3,5.46-2.15-1.16,2.78-5.11a1.27,1.27,0,0,0-.51-1.94,2.46,2.46,0,0,0-2.19,0l-3,5.44-2.12-1.15L376.72,96l2.13,1.15-.58,1.06a4.06,4.06,0,0,1,3.33.18,2.45,2.45,0,0,1,1.45,2.69,3.9,3.9,0,0,1,3.57,0,2.46,2.46,0,0,1,1.05,3.74l-3.17,5.84-2.14-1.16Z"/><path class="cls-13" d="M394.9,106.09c2.32,1.47,2.79,4.2,1.19,6.75l-.29.45L390,109.63a2.48,2.48,0,0,0,1.09,3.23,3.87,3.87,0,0,0,2.57.54l.07,1.89a5.77,5.77,0,0,1-3.89-1,4.83,4.83,0,1,1,5-8.25Zm-4,2.14,3.83,2.42a2.13,2.13,0,0,0-.82-2.93A2.21,2.21,0,0,0,390.86,108.23Z"/><path class="cls-13" d="M403.36,116.48a1.49,1.49,0,0,0-.39-2.38,2.62,2.62,0,0,0-2.34-.32l-3.59,5-2-1.4,5.33-7.51,2,1.4-.69,1a4.22,4.22,0,0,1,3.45.7,2.69,2.69,0,0,1,.75,4.13l-3.77,5.29-2-1.4Z"/><path class="cls-13" d="M405.67,122.29l2.95-3.8-1.21-.93,1.3-1.67,1.2.93,1.55-2,1.93,1.5-1.55,2,1.48,1.14-1.3,1.68L410.54,120,408,123.27a.89.89,0,0,0,0,1.32,1.34,1.34,0,0,0,.82.3l-.71,1.76a3,3,0,0,1-2-.77A2.31,2.31,0,0,1,405.67,122.29Z"/><path class="cls-13" d="M476.81,164.62a6.44,6.44,0,0,1,9,2.49,5.87,5.87,0,0,1,0,6.24l-2.15-1.44a3.49,3.49,0,0,0,.05-3.6,4.18,4.18,0,0,0-7.22,4.17,3.43,3.43,0,0,0,3.14,1.75l.19,2.58a5.9,5.9,0,0,1-5.41-3.12A6.44,6.44,0,0,1,476.81,164.62Z"/><path class="cls-13" d="M481.84,184.53a4.35,4.35,0,0,1-2.71-2.26,2.64,2.64,0,0,1,1.24-4l5.83-3,1.1,2.16-5,2.53a1.49,1.49,0,0,0-.75,2.28,2.71,2.71,0,0,0,1.89,1.4l5.55-2.83,1.1,2.16-8.21,4.17-1.09-2.16Z"/><path class="cls-13" d="M485.6,188.28a5.28,5.28,0,0,0,.17,3.42c.43,1,1,1.25,1.49,1s.46-1.09.22-2.13c-.37-1.56-.87-3.58,1.13-4.48,1.4-.64,3.19,0,4.19,2.24a5.85,5.85,0,0,1,.39,3.9l-1.91-.2a3.89,3.89,0,0,0-.15-2.92c-.37-.8-.9-1.19-1.38-1s-.41,1-.18,2c.37,1.57.87,3.67-1.22,4.61-1.52.69-3.28-.08-4.33-2.41a6.23,6.23,0,0,1-.4-4.34Z"/><path class="cls-13" d="M488.8,197l4.44-1.82-.58-1.41,2-.81.58,1.41,2.32-1,.93,2.26-2.32,1,.71,1.72-2,.81-.71-1.73L490.33,199a.89.89,0,0,0-.62,1.16,1.39,1.39,0,0,0,.57.68l-1.5,1.17a3,3,0,0,1-1.31-1.64A2.31,2.31,0,0,1,488.8,197Z"/><path class="cls-13" d="M493,201.17a4.87,4.87,0,1,1-2.88,6.23A4.67,4.67,0,0,1,493,201.17Zm2.48,6.78a2.37,2.37,0,1,0-3.33-1.29A2.42,2.42,0,0,0,495.52,208Z"/><path class="cls-13" d="M501.45,222.67a1.28,1.28,0,0,0,1-1.74,2.47,2.47,0,0,0-1.57-1.52L495,221.19l-.7-2.34,5.57-1.66a1.27,1.27,0,0,0,1-1.74,2.45,2.45,0,0,0-1.58-1.51l-5.94,1.77-.69-2.32,8.82-2.63.7,2.32-1.16.34a4,4,0,0,1,2.23,2.48,2.43,2.43,0,0,1-.87,2.92,4,4,0,0,1,2.51,2.56,2.47,2.47,0,0,1-1.89,3.39l-6.38,1.9-.7-2.34Z"/><path class="cls-13" d="M507.2,230.72c.63,2.67-.95,5-3.88,5.65l-.52.12-1.56-6.66a2.49,2.49,0,0,0-1.48,3.07,3.75,3.75,0,0,0,1.46,2.18l-1.28,1.4a5.69,5.69,0,0,1-2.11-3.4,4.83,4.83,0,1,1,9.37-2.36Zm-4.37-1.3,1,4.42a2.15,2.15,0,0,0,1.47-2.68A2.21,2.21,0,0,0,502.83,229.42Z"/><path class="cls-13" d="M508.39,237.22l.46,2.37-1.23.24a3.92,3.92,0,0,1,2,2.61l-2.32.44a2.84,2.84,0,0,0-.05-.67,3.06,3.06,0,0,0-1.46-2l-6,1.15-.46-2.38Z"/><path class="cls-13" d="M451.2,166.67,450.07,165l-3.75,2.6-1.54-2.23,10.45-7.24,3.39,4.89a4,4,0,0,1-.94,5.84,3.66,3.66,0,0,1-4.69-.13l-2.35,5.1-1.77-2.55Zm5.28-2.62-1.62-2.33-2.88,2,1.62,2.33a1.76,1.76,0,1,0,2.88-2Z"/><path class="cls-13" d="M461.48,173.47c1.44,2.33.67,5-1.89,6.58l-.46.29-3.59-5.83a2.49,2.49,0,0,0-.42,3.38,3.74,3.74,0,0,0,2.07,1.61l-.77,1.73a5.72,5.72,0,0,1-3.08-2.56,4.83,4.83,0,1,1,8.14-5.2Zm-4.57.15,2.39,3.86a2.14,2.14,0,0,0,.54-3A2.22,2.22,0,0,0,456.91,173.62Z"/><path class="cls-13" d="M467.7,177.51l1.19,2.11-11.06,6.26-1.19-2.11Z"/><path class="cls-13" d="M462.35,192.34a3.77,3.77,0,0,1-2.38-2,3.06,3.06,0,0,1,1.23-4.25,2.92,2.92,0,0,1,4.08,1.5,3.71,3.71,0,0,1,.34,3.1l1.13-.58c.83-.43,1-1.42.45-2.51a3.88,3.88,0,0,0-2.2-1.88l1-1.56a6.06,6.06,0,0,1,3.14,2.9c1,1.87,1.1,4-1.25,5.18l-5.28,2.73-1.11-2.15Zm2.14-1.1a2.45,2.45,0,0,0-.19-2.09c-.44-.85-1.23-1.32-2-.9s-.84,1.31-.4,2.16a2.41,2.41,0,0,0,1.6,1.35Z"/><path class="cls-13" d="M465.86,196.45l4.36-2-.65-1.39,1.92-.89.64,1.38,2.28-1.06,1,2.21-2.28,1.06.79,1.7-1.92.89-.78-1.69-3.77,1.75c-.52.25-.79.71-.56,1.19a1.36,1.36,0,0,0,.59.65l-1.44,1.24a3,3,0,0,1-1.39-1.58A2.3,2.3,0,0,1,465.86,196.45Z"/><path class="cls-13" d="M474.68,199.1l1,2.22L467.19,205l-1-2.23Zm2.47-1.35a1.47,1.47,0,0,1,1.91.76,1.45,1.45,0,0,1-2.66,1.15A1.47,1.47,0,0,1,477.15,197.75Z"/><path class="cls-13" d="M472.21,204.85a4.87,4.87,0,1,1-2.76,6.28A4.66,4.66,0,0,1,472.21,204.85Zm2.61,6.74a2.44,2.44,0,0,0,1.63-3.17,2.7,2.7,0,0,0-5,1.93A2.44,2.44,0,0,0,474.82,211.59Z"/><path class="cls-13" d="M479.16,221.3a1.51,1.51,0,0,0,1.11-2.15,2.65,2.65,0,0,0-1.69-1.65l-5.89,1.92-.75-2.3,8.75-2.86.75,2.3-1.14.38a4.18,4.18,0,0,1,2.36,2.62,2.67,2.67,0,0,1-1.86,3.75l-6.18,2-.75-2.3Z"/><path class="cls-13" d="M478.1,227a5.22,5.22,0,0,0-.38,3.4c.27,1,.75,1.4,1.3,1.25s.64-1,.57-2.07c-.12-1.61-.29-3.68,1.83-4.25,1.49-.41,3.15.55,3.78,2.88a5.88,5.88,0,0,1-.24,3.92l-1.86-.5a3.84,3.84,0,0,0,.32-2.91c-.23-.85-.69-1.32-1.21-1.18s-.56.91-.49,1.95c.12,1.61.27,3.76-1.94,4.36-1.62.44-3.23-.6-3.9-3.07a6.14,6.14,0,0,1,.31-4.35Z"/><path class="cls-13" d="M484.35,241a1.48,1.48,0,0,0,1.28-2,2.67,2.67,0,0,0-1.51-1.81l-6.05,1.32-.52-2.36L490,233.4l.51,2.36-4.59,1a4.31,4.31,0,0,1,2.09,2.86,2.65,2.65,0,0,1-2.2,3.54l-6.38,1.4-.52-2.37Z"/><path class="cls-13" d="M488.84,245.19l.42,2.39-9.06,1.61-.42-2.38Zm2.72-.73a1.45,1.45,0,1,1-1.18,1.68A1.47,1.47,0,0,1,491.56,244.46Z"/><path class="cls-13" d="M477.14,251.91l12.6-1.72.32,2.4-1.15.15a3.57,3.57,0,0,1,1.77,2.63c.32,2.34-1.19,4.28-4.22,4.69s-5-1-5.35-3.38a3.5,3.5,0,0,1,1-3l-4.65.64Zm11.3,3a2.71,2.71,0,0,0-1.32-1.91l-3.23.44a2.77,2.77,0,0,0-.75,2.2,2.7,2.7,0,0,0,5.3-.73Z"/><path class="cls-13" d="M435.4,171,426,173.78l-.73-.94,5.05-8.42L423.05,170l-1.65-2.14,10.06-7.78,2.32,3-4.39,7.3,8.16-2.41,2.34,3-10.07,7.77-1.66-2.15Z"/><path class="cls-13" d="M434.87,184.72a3.79,3.79,0,0,1-2.59-1.77,3.07,3.07,0,0,1,.77-4.35,2.92,2.92,0,0,1,4.22,1,3.75,3.75,0,0,1,.67,3.05L439,182c.78-.52.85-1.52.18-2.54a4,4,0,0,0-2.39-1.64l.84-1.65a6,6,0,0,1,3.43,2.55c1.16,1.75,1.52,3.81-.69,5.28l-4.95,3.28-1.34-2Zm2-1.32a2.43,2.43,0,0,0-.41-2.06,1.41,1.41,0,1,0-2.29,1.51,2.44,2.44,0,0,0,1.74,1.18Z"/><path class="cls-13" d="M444.53,191.72a1.49,1.49,0,0,0,.63-2.33,2.6,2.6,0,0,0-2-1.26l-5.35,3.11-1.22-2.09,8-4.63,1.21,2.09-1,.61a4.2,4.2,0,0,1,2.86,2.06,2.67,2.67,0,0,1-1,4.06l-5.62,3.27-1.21-2.09Z"/><path class="cls-13" d="M445.34,203.07A3.82,3.82,0,0,1,443,201a3.06,3.06,0,0,1,1.27-4.24,2.93,2.93,0,0,1,4.07,1.54,3.71,3.71,0,0,1,.31,3.11l1.14-.58c.83-.42,1-1.41.46-2.5a3.86,3.86,0,0,0-2.18-1.91l1-1.54a6,6,0,0,1,3.11,2.93c.95,1.87,1.07,4-1.29,5.16l-5.31,2.69-1.1-2.16Zm2.14-1.09a2.44,2.44,0,0,0-.16-2.09c-.43-.85-1.23-1.33-2-.92a1.51,1.51,0,0,0-.42,2.16,2.43,2.43,0,0,0,1.59,1.37Z"/><path class="cls-13" d="M446.32,208.71a3.61,3.61,0,0,0,.1,3.09,2.25,2.25,0,0,0,3.14,1.4l.86-.37a3.57,3.57,0,0,1-2.46-2c-.92-2.11-.13-4.37,2.68-5.59s5-.28,5.92,1.86a3.53,3.53,0,0,1-.16,3.16l1.08-.47,1,2.24-7.87,3.42c-3.21,1.39-5.08-.75-6-2.83a5.54,5.54,0,0,1-.32-4.18Zm8.43,2.24a2.63,2.63,0,0,0,.14-2.33,2.54,2.54,0,0,0-4.65,2,2.63,2.63,0,0,0,1.79,1.49Z"/><path class="cls-13" d="M461.12,218.42c.94,2.58-.36,5-3.19,6.07l-.5.18-2.34-6.42a2.48,2.48,0,0,0-1.1,3.22,3.75,3.75,0,0,0,1.7,2l-1.1,1.54a5.74,5.74,0,0,1-2.5-3.12,4.84,4.84,0,1,1,9-3.46Zm-4.51-.77,1.56,4.26a2.14,2.14,0,0,0,1.14-2.83A2.22,2.22,0,0,0,456.61,217.65Z"/><path class="cls-13" d="M463.09,236.8a1.27,1.27,0,0,0,1-1.72,2.42,2.42,0,0,0-1.54-1.54l-6,1.7-.67-2.35,5.59-1.59a1.27,1.27,0,0,0,1-1.72A2.48,2.48,0,0,0,461,228l-6,1.69-.66-2.32,8.85-2.52.66,2.33-1.15.33a4,4,0,0,1,2.2,2.51A2.43,2.43,0,0,1,464,233a3.92,3.92,0,0,1,2.48,2.59,2.46,2.46,0,0,1-1.94,3.36l-6.4,1.82-.67-2.35Z"/><path class="cls-13" d="M468.64,245.05c.55,2.69-1.09,4.93-4,5.53l-.52.11L462.7,244a2.46,2.46,0,0,0-1.55,3,3.81,3.81,0,0,0,1.38,2.23l-1.31,1.36a5.69,5.69,0,0,1-2-3.46,4.83,4.83,0,1,1,9.43-2.09Zm-4.34-1.43.91,4.45a2.14,2.14,0,0,0,1.54-2.63A2.21,2.21,0,0,0,464.3,243.62Z"/><path class="cls-13" d="M467,258.36a1.49,1.49,0,0,0,1.45-1.92,2.59,2.59,0,0,0-1.37-1.92l-6.14.88-.34-2.39,9.11-1.32.35,2.4-1.19.17a4.19,4.19,0,0,1,1.87,3,2.67,2.67,0,0,1-2.47,3.38l-6.44.93-.34-2.39Z"/><path class="cls-13" d="M464.36,264.06l4.78-.46-.15-1.52,2.11-.2.14,1.52,2.51-.24.23,2.42-2.5.24.18,1.86-2.11.2-.18-1.85-4.13.39c-.57.06-1,.4-.93.94a1.36,1.36,0,0,0,.35.81l-1.77.68a3,3,0,0,1-.79-2A2.31,2.31,0,0,1,464.36,264.06Z"/><path class="cls-13" d="M467.55,409.79,472.9,418l-.69,1-9.52-2.41,7.43,5.32-1.57,2.2-10.34-7.4,2.21-3.08,8.24,2.11L464,408.6l2.22-3.1,10.33,7.4L475,415.12Z"/><path class="cls-13" d="M480.28,405.22a3.84,3.84,0,0,1-.55,3.09,3.07,3.07,0,0,1-4.29,1.08,2.91,2.91,0,0,1-.78-4.27,3.73,3.73,0,0,1,2.51-1.86l-1.08-.68c-.79-.5-1.73-.15-2.38.88a3.9,3.9,0,0,0-.52,2.85l-1.85-.08a6.06,6.06,0,0,1,.91-4.18c1.12-1.77,2.85-2.95,5.1-1.54l5,3.17-1.29,2Zm-2-1.28a2.37,2.37,0,0,0-1.71,1.21,1.51,1.51,0,0,0,.25,2.21c.72.46,1.56.06,2.07-.74a2.47,2.47,0,0,0,.36-2.07Z"/><path class="cls-13" d="M482,393.14a1.5,1.5,0,0,0-2.33.64,2.63,2.63,0,0,0-.08,2.36l5.39,3-1.18,2.11-8-4.52,1.19-2.11,1,.59a4.24,4.24,0,0,1,.34-3.51,2.68,2.68,0,0,1,4-1.16l5.65,3.19-1.18,2.11Z"/><path class="cls-13" d="M491,385.93a3.84,3.84,0,0,1-.25,3.13,3.06,3.06,0,0,1-4.16,1.49,2.9,2.9,0,0,1-1.19-4.17,3.73,3.73,0,0,1,2.32-2.1l-1.15-.58c-.83-.41-1.73,0-2.28,1.11a3.88,3.88,0,0,0-.23,2.89l-1.86.09a6,6,0,0,1,.51-4.24c.94-1.87,2.55-3.21,4.92-2l5.31,2.66-1.09,2.16Zm-2.14-1.08a2.42,2.42,0,0,0-1.59,1.38,1.5,1.5,0,0,0,.46,2.17c.77.38,1.56-.09,2-.94a2.46,2.46,0,0,0,.16-2.1Z"/><path class="cls-13" d="M495.05,381.11a3.63,3.63,0,0,0,2.21-2.16,2.26,2.26,0,0,0-1.1-3.27l-.85-.37a3.57,3.57,0,0,1,.17,3.18c-.94,2.11-3.13,3.05-5.93,1.81s-3.58-3.49-2.64-5.61a3.54,3.54,0,0,1,2.44-2l-1.08-.48,1-2.23,7.84,3.48c3.2,1.42,2.89,4.25,2,6.32a5.6,5.6,0,0,1-2.86,3.07ZM491,373.39a2.62,2.62,0,0,0-1.8,1.47,2.54,2.54,0,0,0,4.63,2.06,2.68,2.68,0,0,0-.11-2.32Z"/><path class="cls-13" d="M491.45,363.8c1-2.56,3.59-3.56,6.39-2.47l.5.19-2.47,6.38a2.48,2.48,0,0,0,2.95-1.7,3.75,3.75,0,0,0,0-2.62l1.84-.43a5.7,5.7,0,0,1-.17,4,4.83,4.83,0,1,1-9.07-3.34Zm2.88,3.54,1.64-4.22a2.12,2.12,0,0,0-2.72,1.38A2.19,2.19,0,0,0,494.33,367.34Z"/><path class="cls-13" d="M500.66,348.16a1.28,1.28,0,0,0-1.82.86,2.43,2.43,0,0,0,.44,2.14l5.92,1.9-.75,2.32-5.53-1.77a1.28,1.28,0,0,0-1.82.86,2.49,2.49,0,0,0,.45,2.15l5.91,1.88-.74,2.31L494,358l.74-2.31,1.14.37a4,4,0,0,1-.44-3.31,2.43,2.43,0,0,1,2.37-1.92,3.88,3.88,0,0,1-.63-3.52,2.45,2.45,0,0,1,3.47-1.74l6.34,2-.75,2.32Z"/><path class="cls-13" d="M499.53,338.47c.68-2.66,3.14-4,6.05-3.21l.52.13L504.41,342a2.48,2.48,0,0,0,2.72-2,3.76,3.76,0,0,0-.28-2.61l1.78-.65a5.74,5.74,0,0,1,.3,4,4.83,4.83,0,1,1-9.4-2.24Zm3.28,3.18,1.12-4.4a2.12,2.12,0,0,0-2.53,1.7A2.21,2.21,0,0,0,502.81,341.65Z"/><path class="cls-13" d="M506.06,327.05a1.49,1.49,0,0,0-2,1.32,2.64,2.64,0,0,0,.65,2.27l6.07,1.23-.49,2.38-9-1.84.48-2.38,1.18.24a4.18,4.18,0,0,1-.76-3.44,2.67,2.67,0,0,1,3.47-2.34l6.37,1.3-.48,2.37Z"/><path class="cls-13" d="M510.27,322.28l-4.74-.78-.25,1.5-2.08-.34.24-1.5-2.48-.41.4-2.41,2.48.41.3-1.84,2.09.34-.31,1.84,4.11.68a.89.89,0,0,0,1.13-.67,1.3,1.3,0,0,0-.13-.87l1.89-.21a3,3,0,0,1,.26,2.09A2.31,2.31,0,0,1,510.27,322.28Z"/><path class="cls-13" d="M465.08,386.48a5.58,5.58,0,0,0,3.44-2.73c.71-1.3.44-2.28-.2-2.62-.84-.46-1.65.36-2.65,1.48-1.42,1.6-3.19,3.66-5.69,2.31-1.85-1-2.48-3.44-1.05-6.07a7.06,7.06,0,0,1,3.92-3.5l1,2.27a5.4,5.4,0,0,0-3,2.53c-.58,1.07-.42,1.89.24,2.26s1.5-.4,2.51-1.53c1.42-1.61,3.24-3.65,5.72-2.3,2,1.11,2.79,3.41,1.15,6.42a7.35,7.35,0,0,1-4.36,3.77Z"/><path class="cls-13" d="M475.26,373.06a3.84,3.84,0,0,1-.2,3.14,3.06,3.06,0,0,1-4.13,1.57,2.92,2.92,0,0,1-1.27-4.15,3.74,3.74,0,0,1,2.28-2.15l-1.16-.55c-.84-.4-1.74.06-2.26,1.16a3.83,3.83,0,0,0-.18,2.89l-1.86.13a6.08,6.08,0,0,1,.43-4.26c.9-1.89,2.49-3.26,4.88-2.12l5.37,2.56-1.05,2.19Zm-2.17-1a2.38,2.38,0,0,0-1.56,1.41,1.51,1.51,0,0,0,.5,2.16c.78.37,1.56-.12,2-1a2.41,2.41,0,0,0,.12-2.1Z"/><path class="cls-13" d="M466.56,363.75l1-2.22,11.68,5.05-1,2.22Z"/><path class="cls-13" d="M473,356.78c1-2.56,3.59-3.56,6.4-2.47l.5.2-2.48,6.38a2.48,2.48,0,0,0,2.95-1.7,3.75,3.75,0,0,0,0-2.62l1.84-.43a5.79,5.79,0,0,1-.18,4,4.84,4.84,0,1,1-9.07-3.36Zm2.88,3.55,1.64-4.23a2.13,2.13,0,0,0-2.72,1.37A2.22,2.22,0,0,0,475.87,360.33Z"/><path class="cls-13" d="M481.48,352.73a5.29,5.29,0,0,0,2.21-2.61c.33-1,.14-1.58-.4-1.76s-1.09.48-1.62,1.4c-.79,1.41-1.79,3.22-3.87,2.53-1.47-.49-2.32-2.2-1.55-4.5a5.8,5.8,0,0,1,2.37-3.12l1.26,1.44a3.93,3.93,0,0,0-1.88,2.25c-.27.83-.15,1.48.36,1.64s1-.44,1.49-1.35c.79-1.4,1.86-3.27,4-2.55,1.59.53,2.35,2.29,1.54,4.72a6.23,6.23,0,0,1-2.66,3.45Z"/><path class="cls-13" d="M323.18,503.31l-2.08,9.61-1.16.18-5-8.46,1.46,9-2.67.43-2-12.55,3.74-.61,4.32,7.34,1.78-8.32,3.76-.61,2,12.55-2.69.43Z"/><path class="cls-13" d="M335.4,509.13a3.82,3.82,0,0,1-2.59,1.79,3.07,3.07,0,0,1-3.79-2.28,2.91,2.91,0,0,1,2.49-3.56,3.68,3.68,0,0,1,3.09.46l-.28-1.25c-.2-.91-1.12-1.33-2.31-1.07a3.85,3.85,0,0,0-2.38,1.65l-1.25-1.38A6,6,0,0,1,332,501.2c2.05-.46,4.11-.06,4.69,2.52l1.29,5.81-2.36.53Zm-.52-2.35a2.43,2.43,0,0,0-2.07-.35c-.93.2-1.59.86-1.39,1.73s1.05,1.15,2,.94a2.42,2.42,0,0,0,1.73-1.2Z"/><path class="cls-13" d="M345.19,501.85a1.49,1.49,0,0,0-2.09-1.2,2.62,2.62,0,0,0-1.73,1.6l1.64,6-2.34.64L338.24,500l2.33-.64.32,1.15a4.24,4.24,0,0,1,2.73-2.23,2.68,2.68,0,0,1,3.66,2l1.72,6.27-2.33.64Z"/><path class="cls-13" d="M356.6,503.15a3.78,3.78,0,0,1-2.4,2,3.06,3.06,0,0,1-4-1.9,2.92,2.92,0,0,1,2.13-3.79,3.74,3.74,0,0,1,3.12.17l-.4-1.21c-.28-.89-1.23-1.22-2.39-.84a3.85,3.85,0,0,0-2.22,1.86l-1.37-1.25a6,6,0,0,1,3.37-2.63c2-.65,4.08-.45,4.9,2.07l1.85,5.65-2.3.75Zm-.74-2.28a2.45,2.45,0,0,0-2.1-.16c-.9.3-1.49,1-1.21,1.86s1.16,1.05,2.06.75a2.39,2.39,0,0,0,1.6-1.36Z"/><path class="cls-13" d="M362.91,502.63a3.63,3.63,0,0,0,3.09,0,2.24,2.24,0,0,0,1.54-3.07l-.33-.87a3.58,3.58,0,0,1-2.14,2.36c-2.15.82-4.37-.07-5.46-2.94s-.05-5,2.12-5.82a3.56,3.56,0,0,1,3.16.3l-.42-1.1,2.28-.87,3.05,8c1.25,3.27-1,5-3.09,5.85a5.61,5.61,0,0,1-4.2.12Zm2.62-8.32a2.61,2.61,0,0,0-2.32-.24,2.55,2.55,0,0,0,1.81,4.74,2.72,2.72,0,0,0,1.57-1.72Z"/><path class="cls-13" d="M372.65,487.88c2.52-1.1,5.05,0,6.26,2.8l.21.49-6.27,2.74a2.49,2.49,0,0,0,3.29.89A3.75,3.75,0,0,0,378,493l1.61,1a5.69,5.69,0,0,1-3,2.69,4.83,4.83,0,1,1-4-8.79Zm-.49,4.54,4.16-1.82a2.14,2.14,0,0,0-2.9-1A2.22,2.22,0,0,0,372.16,492.42Z"/><path class="cls-13" d="M390.22,483.4a1.28,1.28,0,0,0-1.89-.68,2.45,2.45,0,0,0-1.21,1.82l2.83,5.53-2.17,1.11L385.13,486a1.28,1.28,0,0,0-1.89-.68,2.47,2.47,0,0,0-1.21,1.84l2.83,5.52-2.16,1.1-4.19-8.2,2.15-1.11.55,1.07a4.05,4.05,0,0,1,2-2.64,2.43,2.43,0,0,1,3,.33,3.89,3.89,0,0,1,2.06-2.93,2.45,2.45,0,0,1,3.67,1.24l3,5.93-2.17,1.11Z"/><path class="cls-13" d="M396.32,475.77c2.36-1.39,5-.57,6.54,2l.27.46-5.89,3.48a2.48,2.48,0,0,0,3.36.49,3.75,3.75,0,0,0,1.66-2l1.71.8a5.75,5.75,0,0,1-2.62,3,4.83,4.83,0,1,1-5-8.25Zm.05,4.57,3.91-2.31a2.13,2.13,0,0,0-3-.6A2.23,2.23,0,0,0,396.37,480.34Z"/><path class="cls-13" d="M409,472.35a1.5,1.5,0,0,0-2.36-.5,2.63,2.63,0,0,0-1.15,2.06l3.39,5.18-2,1.33-5-7.7,2-1.33.66,1a4.23,4.23,0,0,1,1.91-3,2.68,2.68,0,0,1,4.11.82l3.57,5.43-2,1.33Z"/><path class="cls-13" d="M415.39,472l-2.79-3.91-1.24.88-1.22-1.72,1.24-.88-1.46-2.05,2-1.42,1.46,2.05,1.52-1.08,1.22,1.72-1.52,1.09L417,470a.9.9,0,0,0,1.27.34,1.34,1.34,0,0,0,.53-.71l1.48,1.19a3,3,0,0,1-1.3,1.66A2.3,2.3,0,0,1,415.39,472Z"/><path class="cls-13" d="M320.56,486.54a6.44,6.44,0,0,1,5.16-7.82,5.86,5.86,0,0,1,5.94,1.91l-2,1.6a3.46,3.46,0,0,0-3.4-1.16,4.18,4.18,0,0,0,1.74,8.16,3.44,3.44,0,0,0,2.63-2.45l2.51.61a5.9,5.9,0,0,1-4.64,4.19A6.45,6.45,0,0,1,320.56,486.54Z"/><path class="cls-13" d="M333.89,485.4a4.87,4.87,0,1,1,6,3.38A4.66,4.66,0,0,1,333.89,485.4Zm7-1.92a2.38,2.38,0,1,0-1.56,3.22A2.42,2.42,0,0,0,340.85,483.48Z"/><path class="cls-13" d="M350.75,479.36a1.48,1.48,0,0,0-2.15-1.09A2.61,2.61,0,0,0,347,480l2,5.88-2.3.76-2.91-8.73,2.3-.76.38,1.13a4.2,4.2,0,0,1,2.6-2.37,2.67,2.67,0,0,1,3.76,1.83l2.06,6.17-2.29.76Z"/><path class="cls-13" d="M357,480.6l-1.71-4.49-1.43.54-.75-2,1.42-.54-.89-2.35,2.28-.87.89,2.35,1.75-.67.75,2-1.74.67,1.48,3.88a.88.88,0,0,0,1.14.64,1.34,1.34,0,0,0,.69-.54l1.13,1.52a3,3,0,0,1-1.67,1.27A2.3,2.3,0,0,1,357,480.6Z"/><path class="cls-13" d="M360.07,472l2.23-.94.49,1.16a3.9,3.9,0,0,1,2.13-2.49l.92,2.18a3.19,3.19,0,0,0-.65.19,3.09,3.09,0,0,0-1.68,1.84l2.35,5.61-2.23.93Z"/><path class="cls-13" d="M374.85,474.46a3.82,3.82,0,0,1-2.13,2.3,3.07,3.07,0,0,1-4.2-1.39,2.91,2.91,0,0,1,1.65-4,3.7,3.7,0,0,1,3.12-.22l-.55-1.16c-.39-.84-1.38-1.05-2.48-.54a3.89,3.89,0,0,0-2,2.13l-1.52-1.07a6.06,6.06,0,0,1,3-3c1.9-.89,4-.95,5.13,1.45l2.53,5.38-2.19,1Zm-1-2.18a2.44,2.44,0,0,0-2.1.1c-.86.41-1.36,1.19-1,2a1.52,1.52,0,0,0,2.15.49,2.45,2.45,0,0,0,1.42-1.55Z"/><path class="cls-13" d="M379.3,462.68a4.28,4.28,0,0,1,4-.24l-.7,2.05a2.26,2.26,0,0,0-2.18,0,2.68,2.68,0,0,0,2.51,4.73,2.36,2.36,0,0,0,1.26-1.79l2.08.55a4.23,4.23,0,0,1-2.43,3.19,4.83,4.83,0,1,1-4.53-8.53Z"/><path class="cls-13" d="M387.86,466.11,385.44,462l-1.32.77-1.06-1.82,1.32-.77L383.11,458l2.11-1.22,1.26,2.17,1.62-.94,1.06,1.82-1.61.95,2.09,3.59a.89.89,0,0,0,1.23.45,1.3,1.3,0,0,0,.59-.66l1.37,1.32a2.94,2.94,0,0,1-1.45,1.53A2.29,2.29,0,0,1,387.86,466.11Z"/><path class="cls-13" d="M140.23,455.39,131.54,460l-.89-.78,3.26-9.26-6,6.92-2.05-1.77,8.31-9.62,2.88,2.48-2.85,8,7.52-4,2.88,2.49-8.31,9.62-2.06-1.78Z"/><path class="cls-13" d="M143.6,468.48a3.79,3.79,0,0,1-3-.83,3.07,3.07,0,0,1-.69-4.37,2.91,2.91,0,0,1,4.33-.38,3.69,3.69,0,0,1,1.63,2.66l.78-1c.56-.74.3-1.71-.67-2.46a3.88,3.88,0,0,0-2.79-.77l.25-1.84a6.06,6.06,0,0,1,4.08,1.29c1.66,1.28,2.68,3.12,1.07,5.22L145,470.71,143,469.24Zm1.46-1.9a2.4,2.4,0,0,0-1.05-1.82,1.41,1.41,0,1,0-1.67,2.18,2.44,2.44,0,0,0,2,.55Z"/><path class="cls-13" d="M155.47,471.32a1.51,1.51,0,0,0-.42-2.38,2.65,2.65,0,0,0-2.34-.3l-3.53,5.09-2-1.37,5.24-7.57,2,1.38-.68,1a4.22,4.22,0,0,1,3.46.66,2.67,2.67,0,0,1,.79,4.11l-3.7,5.35-2-1.38Z"/><path class="cls-13" d="M161.83,480.92a3.82,3.82,0,0,1-3.1-.54,3.07,3.07,0,0,1-1.1-4.28,2.92,2.92,0,0,1,4.27-.8,3.75,3.75,0,0,1,1.88,2.5l.67-1.09c.5-.79.14-1.73-.9-2.37a3.84,3.84,0,0,0-2.85-.5l.08-1.86a6,6,0,0,1,4.18.9c1.78,1.11,3,2.84,1.57,5.08L163.38,483l-2-1.28Zm1.27-2a2.45,2.45,0,0,0-1.22-1.71,1.41,1.41,0,1,0-1.46,2.33,2.42,2.42,0,0,0,2.08.35Z"/><path class="cls-13" d="M166.24,485.39a3.66,3.66,0,0,0,2,2.4,2.25,2.25,0,0,0,3.35-.79l.45-.82a3.58,3.58,0,0,1-3.18-.11c-2-1.13-2.76-3.4-1.26-6.08s3.79-3.24,5.83-2.11a3.58,3.58,0,0,1,1.79,2.61l.57-1,2.13,1.19-4.18,7.49c-1.7,3.06-4.48,2.49-6.47,1.38a5.57,5.57,0,0,1-2.79-3.12Zm8.06-3.33a2.61,2.61,0,0,0-1.3-1.93,2.55,2.55,0,0,0-2.47,4.43,2.69,2.69,0,0,0,2.33.09Z"/><path class="cls-13" d="M183.82,483.4c2.46,1.22,3.21,3.9,1.88,6.59l-.24.48-6.13-3a2.49,2.49,0,0,0,1.43,3.09,3.74,3.74,0,0,0,2.6.27l.27,1.88a5.75,5.75,0,0,1-4-.55,4.83,4.83,0,1,1,4.16-8.72ZM180,486l4.06,2a2.12,2.12,0,0,0-1.13-2.83A2.2,2.2,0,0,0,180,486Z"/><path class="cls-13" d="M198.53,494a1.27,1.27,0,0,0-.69-1.89,2.43,2.43,0,0,0-2.17.24l-2.42,5.72-2.25-.95,2.27-5.36a1.27,1.27,0,0,0-.69-1.88,2.47,2.47,0,0,0-2.18.25L188,495.84l-2.23-.95,3.6-8.47,2.22.94-.46,1.11a4,4,0,0,1,3.33-.14,2.42,2.42,0,0,1,1.69,2.54,3.89,3.89,0,0,1,3.57-.31,2.46,2.46,0,0,1,1.41,3.62l-2.6,6.12-2.25-.95Z"/><path class="cls-13" d="M208.33,493.77c2.58.92,3.66,3.48,2.65,6.32l-.18.5-6.45-2.28a2.49,2.49,0,0,0,1.79,2.89,3.75,3.75,0,0,0,2.62,0l.48,1.83a5.75,5.75,0,0,1-4-.06,4.83,4.83,0,1,1,3.09-9.16Zm-3.46,3,4.27,1.51a2.14,2.14,0,0,0-1.46-2.68A2.2,2.2,0,0,0,204.87,496.75Z"/><path class="cls-13" d="M219.11,501.33A1.49,1.49,0,0,0,218,499.2a2.62,2.62,0,0,0-2.32.43l-1.79,5.93-2.31-.7,2.65-8.81,2.32.7-.35,1.15a4.19,4.19,0,0,1,3.5-.44,2.67,2.67,0,0,1,2,3.67l-1.87,6.22-2.32-.7Z"/><path class="cls-13" d="M223.47,505.94l1.21-4.64-1.48-.39.53-2,1.48.38.63-2.44,2.36.61-.63,2.44,1.81.47-.53,2.05-1.81-.47-1,4a.88.88,0,0,0,.56,1.19,1.31,1.31,0,0,0,.88-.05l0,1.9a3,3,0,0,1-2.1.06A2.3,2.3,0,0,1,223.47,505.94Z"/><path class="cls-13" d="M235.08,497.66l1.71.4-7.42,12.11-1.71-.39Z"/><path class="cls-13" d="M248,504.17l-5.13,8.38-1.16-.21-1.93-9.63-1.6,9-2.67-.48,2.23-12.52,3.73.67,1.66,8.34,4.42-7.26,3.76.66-2.23,12.52-2.68-.47Z"/><path class="cls-13" d="M257.21,510l-2-.22-.51,4.53L252,514l1.42-12.64,5.91.67a4,4,0,0,1,3.79,4.55A3.66,3.66,0,0,1,260,510l2.3,5.13-3.09-.35Zm1.5-5.7-2.82-.31-.39,3.48,2.82.32a1.76,1.76,0,1,0,.39-3.49Z"/><path class="cls-13" d="M265.41,502.66l5.94.36a4.08,4.08,0,1,1-.49,8.14l-3.23-.19-.27,4.55-2.7-.17Zm5.44,2.66-2.87-.17-.21,3.5,2.87.17a1.76,1.76,0,1,0,.21-3.5Z"/><path class="cls-13" d="M163,443.64l4.84,3.45a4.08,4.08,0,1,1-4.73,6.64l-2.64-1.88-2.65,3.71-2.2-1.57Zm3.2,5.13-2.34-1.67-2,2.86,2.34,1.67a1.76,1.76,0,1,0,2-2.86Z"/><path class="cls-13" d="M170.65,453.26l2,1.31-.68,1.06a3.92,3.92,0,0,1,3.26.36L174,458a3,3,0,0,0-.51-.43,3.11,3.11,0,0,0-2.48-.35l-3.3,5.1-2-1.31Z"/><path class="cls-13" d="M173.53,460.61a4.88,4.88,0,1,1,1.74,6.64A4.67,4.67,0,0,1,173.53,460.61Zm6.24,3.66a2.38,2.38,0,1,0-3.41,1.12A2.44,2.44,0,0,0,179.77,464.27Z"/><path class="cls-13" d="M187.7,472.44a3.57,3.57,0,0,1-3.17-.05c-2.07-1.07-2.82-3.43-1.41-6.16s3.77-3.5,5.85-2.42a3.52,3.52,0,0,1,1.87,2.55L193,462.2l2.16,1.12-5.84,11.29-2.16-1.12ZM190,468a2.65,2.65,0,0,0-1.38-1.89,2.71,2.71,0,0,0-2.46,4.76,2.64,2.64,0,0,0,2.34,0Z"/><path class="cls-13" d="M198,477.33a4.33,4.33,0,0,1-3.53-.06,2.63,2.63,0,0,1-1.52-3.86l2.68-6,2.21,1-2.29,5.09a1.47,1.47,0,0,0,.85,2.24,2.7,2.7,0,0,0,2.34-.09l2.56-5.69,2.21,1-3.78,8.39-2.21-1Z"/><path class="cls-13" d="M209.81,473.24a4.3,4.3,0,0,1,2.79,2.87l-2,.81a2.21,2.21,0,0,0-1.45-1.63,2.44,2.44,0,0,0-3.29,1.57,2.47,2.47,0,0,0,1.34,3.41,2.33,2.33,0,0,0,2.17-.21l.94,1.94a4.25,4.25,0,0,1-4,.24,4.83,4.83,0,1,1,3.52-9Z"/><path class="cls-13" d="M212.75,482l1.57-4.54-1.44-.5.69-2,1.44.5.82-2.38,2.31.8-.82,2.38,1.76.61-.69,2-1.77-.61-1.35,3.92a.88.88,0,0,0,.46,1.23,1.27,1.27,0,0,0,.88,0l-.11,1.9a3,3,0,0,1-2.11-.1A2.3,2.3,0,0,1,212.75,482Z"/><path class="cls-13" d="M220.65,477.31,223,478l-2.76,8.78-2.31-.73Zm.61-2.75a1.46,1.46,0,0,1,1.82-.94,1.45,1.45,0,0,1-.87,2.76A1.46,1.46,0,0,1,221.26,474.56Z"/><path class="cls-13" d="M223.41,483a4.87,4.87,0,1,1,3.42,6A4.66,4.66,0,0,1,223.41,483Zm7,1.91a2.37,2.37,0,1,0-3,2A2.43,2.43,0,0,0,230.38,484.94Z"/><path class="cls-13" d="M241,486.43a1.49,1.49,0,0,0-1.29-2,2.6,2.6,0,0,0-2.28.62l-1.31,6.05-2.37-.51,2-9,2.36.51-.25,1.18a4.19,4.19,0,0,1,3.45-.72,2.68,2.68,0,0,1,2.3,3.5l-1.37,6.35-2.36-.51Z"/><path class="cls-13" d="M64.58,343.28a6.43,6.43,0,0,1,8.22,4.48,5.88,5.88,0,0,1-1.4,6.08L69.63,352a3.49,3.49,0,0,0,.87-3.5,4.18,4.18,0,0,0-8,2.42,3.46,3.46,0,0,0,2.67,2.42l-.41,2.55a5.9,5.9,0,0,1-4.56-4.27A6.44,6.44,0,0,1,64.58,343.28Z"/><path class="cls-13" d="M66.81,356.42a4.87,4.87,0,1,1-2.89,6.22A4.66,4.66,0,0,1,66.81,356.42Zm2.46,6.79a2.37,2.37,0,1,0-3.33-1.3A2.43,2.43,0,0,0,69.27,363.21Z"/><path class="cls-13" d="M69.38,368.26a5.25,5.25,0,0,0,.06,3.43c.4,1,.92,1.29,1.45,1.07s.5-1.08.3-2.13c-.33-1.58-.76-3.61,1.27-4.45,1.42-.59,3.19.15,4.12,2.38a5.88,5.88,0,0,1,.26,3.92l-1.9-.27a3.89,3.89,0,0,0-.06-2.92c-.34-.81-.86-1.22-1.35-1s-.44,1-.24,2c.32,1.58.74,3.69-1.37,4.57-1.55.64-3.27-.19-4.25-2.55a6.13,6.13,0,0,1-.26-4.35Z"/><path class="cls-13" d="M72.54,377.27l4.37-2-.63-1.39,1.93-.88.63,1.39,2.29-1,1,2.22-2.29,1,.78,1.7-1.93.88-.77-1.7-3.78,1.72a.89.89,0,0,0-.58,1.19,1.36,1.36,0,0,0,.59.65l-1.45,1.23a3,3,0,0,1-1.37-1.6A2.3,2.3,0,0,1,72.54,377.27Z"/><path class="cls-13" d="M81.34,379.79,82.4,382l-8.29,4-1-2.18Zm2.41-1.45A1.45,1.45,0,1,1,85,381a1.45,1.45,0,0,1-1.94-.67A1.47,1.47,0,0,1,83.75,378.34Z"/><path class="cls-13" d="M83.11,391.28a1.5,1.5,0,0,0,.72-2.31,2.62,2.62,0,0,0-1.94-1.34l-5.48,2.91-1.13-2.14,8.13-4.32,1.14,2.14-1.07.56A4.24,4.24,0,0,1,86.26,389a2.68,2.68,0,0,1-1.19,4l-5.74,3-1.14-2.14Z"/><path class="cls-13" d="M80.64,399.55a3.69,3.69,0,0,0,.49,3.06,2.25,2.25,0,0,0,3.3,1l.8-.48a3.57,3.57,0,0,1-2.7-1.7c-1.18-2-.69-4.31,2-5.89s4.91-.91,6.1,1.09a3.53,3.53,0,0,1,.25,3.16l1-.6,1.25,2.09-7.36,4.4c-3,1.79-5.14-.09-6.3-2a5.54,5.54,0,0,1-.85-4.11Zm8.65,1.15a2.62,2.62,0,0,0-.16-2.32,2.55,2.55,0,0,0-4.36,2.6,2.69,2.69,0,0,0,2,1.24Z"/><path class="cls-13" d="M84.59,351.81a2.87,2.87,0,0,0-.17,2.21A1.89,1.89,0,0,0,87,355.19l8-2.89.92,2.54-8,2.91c-2.83,1-4.78-.26-5.66-2.72a4.68,4.68,0,0,1,0-3.62Z"/><path class="cls-13" d="M89,359.52a4.87,4.87,0,1,1-2.59,6.35A4.65,4.65,0,0,1,89,359.52Zm2.79,6.66A2.44,2.44,0,0,0,93.36,363,2.7,2.7,0,0,0,88.42,365,2.44,2.44,0,0,0,91.81,366.18Z"/><path class="cls-13" d="M100.9,366.76l1,2.17L97.73,371a3.52,3.52,0,0,1,2.51,1.94c1,2.11.13,4.47-2.57,5.78s-5.11.53-6.12-1.57a3.54,3.54,0,0,1,0-3.17l-1.07.52-1.05-2.18Zm-7.75,8.75A2.7,2.7,0,0,0,98,373.17a2.65,2.65,0,0,0-1.87-1.4l-2.93,1.42A2.69,2.69,0,0,0,93.15,375.51Z"/><path class="cls-13" d="M311.57,461.49l5.84-1.08a4.08,4.08,0,1,1,1.5,8l-3.19.59.83,4.48-2.66.49Zm5.91,1.27-2.83.52.65,3.45,2.83-.52a1.76,1.76,0,1,0-.65-3.45Z"/><path class="cls-13" d="M323.76,462.67l2.35-.56.29,1.22a4,4,0,0,1,2.52-2.11l.55,2.3a3,3,0,0,0-.67.08,3.08,3.08,0,0,0-2,1.55l1.41,5.91-2.35.56Z"/><path class="cls-13" d="M331.1,465.65a4.87,4.87,0,1,1,6,3.3A4.67,4.67,0,0,1,331.1,465.65Zm6.94-2a2.37,2.37,0,1,0-1.52,3.23A2.42,2.42,0,0,0,338,463.65Z"/><path class="cls-13" d="M339.68,455.36a1.45,1.45,0,1,1,1.83.91A1.45,1.45,0,0,1,339.68,455.36Zm6.44,10.77c.67,2,.1,3.64-2,4.35a4.57,4.57,0,0,1-1,.24l-.49-1.92a2.82,2.82,0,0,0,.52-.12c.67-.22,1-.8.69-1.78l-3-9,2.29-.77Z"/><path class="cls-13" d="M349.14,454.72c2.57-1,5.05.27,6.13,3.08l.19.5-6.39,2.45a2.48,2.48,0,0,0,3.24,1.05,3.73,3.73,0,0,0,2-1.74l1.56,1.08a5.73,5.73,0,0,1-3.08,2.55,4.83,4.83,0,1,1-3.61-9Zm-.7,4.52,4.24-1.63a2.13,2.13,0,0,0-2.85-1.09A2.22,2.22,0,0,0,348.44,459.24Z"/><path class="cls-13" d="M358.92,450.65a4.29,4.29,0,0,1,4,0l-.83,2a2.2,2.2,0,0,0-2.18-.11,2.68,2.68,0,0,0,2.19,4.88,2.31,2.31,0,0,0,1.36-1.69l2.05.69a4.26,4.26,0,0,1-2.64,3,4.83,4.83,0,1,1-3.94-8.82Z"/><path class="cls-13" d="M367.22,454.64l-2.15-4.3-1.36.68-.95-1.89,1.36-.68L363,446.2l2.18-1.09,1.13,2.25,1.67-.84.94,1.89-1.67.84,1.86,3.72a.88.88,0,0,0,1.2.52,1.28,1.28,0,0,0,.63-.61l1.28,1.41a3,3,0,0,1-1.54,1.43A2.3,2.3,0,0,1,367.22,454.64Z"/><path class="cls-13" d="M387.79,445.73l-2.64,1.59c-.36-.07-.81-.2-1.31-.32a5.53,5.53,0,0,1-2.35,2.79c-2,1.21-4.24,1.13-5.5-1-1-1.67-.41-3.18.45-4.57a6.09,6.09,0,0,1-2.12-1.9c-.89-1.47-.28-3.39,1.53-4.48,1.55-.93,3.38-.88,4.26.57,1,1.67.08,3.18-.88,4.6.59.25,1.16.46,1.64.62s1.07.38,1.6.55a10.26,10.26,0,0,0-.28-2.71l2.13-.23a16.63,16.63,0,0,1,.07,3.54C385.46,445.11,386.58,445.42,387.79,445.73Zm-10-3.42c.66-1,1.08-1.87.6-2.67a1,1,0,0,0-1.5-.35,1.31,1.31,0,0,0-.45,1.85A3.85,3.85,0,0,0,377.77,442.31Zm4.24,4.16c-.81-.24-1.57-.47-2-.64-.63-.22-1.3-.49-2-.78a2.35,2.35,0,0,0,.05,2.24,1.93,1.93,0,0,0,2.72.7A3,3,0,0,0,382,446.47Z"/><circle class="cls-13" cx="156.95" cy="232.57" r="35.7"/><circle class="cls-13" cx="407.41" cy="232.57" r="35.7"/><circle class="cls-13" cx="156.95" cy="335.12" r="35.7"/><circle class="cls-13" cx="407.41" cy="335.12" r="35.7"/><circle class="cls-13" cx="231.48" cy="158.84" r="35.7"/><circle class="cls-13" cx="334.63" cy="158.84" r="35.7"/><circle class="cls-13" cx="231.48" cy="407.55" r="35.7"/><circle class="cls-13" cx="334.63" cy="407.55" r="35.7"/><path class="cls-11" d="M252.78,144.15h-.56a11.32,11.32,0,0,0-22.63,0H229a3.87,3.87,0,0,0-3.86,3.86v4.47a3.87,3.87,0,0,0,3.86,3.86h1a.47.47,0,0,0,.46-.46V144.61a10.42,10.42,0,1,1,20.83,0v11.27a.47.47,0,0,0,0,.17,10.62,10.62,0,0,1-8.1,4.28.91.91,0,0,0-.86-.67h-3.53a.92.92,0,1,0,0,1.84h3.53a.92.92,0,0,0,.88-.71,11.1,11.1,0,0,0,8.45-4.46h1.06a3.86,3.86,0,0,0,3.86-3.86V148A3.86,3.86,0,0,0,252.78,144.15Zm-23.21,11.27H229a2.94,2.94,0,0,1-2.94-2.94V148a2.94,2.94,0,0,1,2.94-2.94h.55Zm26.15-2.94a2.94,2.94,0,0,1-2.94,2.94h-.54V145.07h.54a2.94,2.94,0,0,1,2.94,2.94Z"/><path class="cls-11" d="M232.71,155.14v-9.8a.92.92,0,0,0-1.84,0v9.8a.92.92,0,1,0,1.84,0Z"/><path class="cls-11" d="M250.94,155.14v-9.8a.92.92,0,0,0-1.84,0v9.8a.92.92,0,1,0,1.84,0Z"/><path class="cls-11" d="M217.78,160.79a1.47,1.47,0,1,0,1.47,1.47A1.46,1.46,0,0,0,217.78,160.79Zm0,2a.54.54,0,0,1-.54-.54.55.55,0,0,1,.54-.55.55.55,0,0,1,.55.55A.55.55,0,0,1,217.78,162.8Z"/><path class="cls-11" d="M221.29,162.39a.46.46,0,0,0-.09-.92l-.22,0a3.33,3.33,0,0,0-.8-1.49l.14-.17a.47.47,0,0,0-.07-.65.46.46,0,0,0-.65.07l-.14.18a3.22,3.22,0,0,0-1.22-.42v-.23a.45.45,0,0,0-.46-.46.46.46,0,0,0-.46.46V159a3.26,3.26,0,0,0-1.55.65l-.17-.16a.47.47,0,0,0-.65,0,.48.48,0,0,0,0,.66l.16.15a3.21,3.21,0,0,0-.6,1.58h-.23a.46.46,0,0,0,0,.92h.24a3.23,3.23,0,0,0,.71,1.53l-.15.17a.46.46,0,0,0,0,.65.46.46,0,0,0,.65,0l.14-.16a3.33,3.33,0,0,0,1.61.55v.23a.47.47,0,0,0,.46.43h0a.47.47,0,0,0,.43-.49v-.21a3.4,3.4,0,0,0,1.51-.77l.17.15a.46.46,0,0,0,.65-.05.47.47,0,0,0-.05-.65l-.17-.15a3.18,3.18,0,0,0,.5-1.61Zm-3.51,2.25a2.38,2.38,0,1,1,2.38-2.38A2.39,2.39,0,0,1,217.78,164.64Z"/><path class="cls-11" d="M212.72,168.73a2,2,0,1,0-1.9,2.62,2.16,2.16,0,0,0,.61-.1A2,2,0,0,0,212.72,168.73Zm-1.57,1.64a1.07,1.07,0,0,1-1.36-.69,1.08,1.08,0,1,1,1.36.69Z"/><path class="cls-11" d="M212.15,174l.2.52a.46.46,0,0,0,.43.29.51.51,0,0,0,.17,0,.47.47,0,0,0,.26-.6l-.21-.52a4.78,4.78,0,0,0,2.06-2l.51.21a.39.39,0,0,0,.18,0,.46.46,0,0,0,.17-.89l-.51-.21a4.83,4.83,0,0,0,0-2.89l.5-.21a.47.47,0,0,0,.24-.61.47.47,0,0,0-.61-.24l-.5.22a4.82,4.82,0,0,0-2-2l-.06,0,.2-.52a.46.46,0,0,0-.27-.59.47.47,0,0,0-.6.26l-.19.52a4.71,4.71,0,0,0-2.3,0l-.18-.54a.46.46,0,0,0-.87.28l.18.55a4.75,4.75,0,0,0-2.18,1.88l-.51-.25a.45.45,0,0,0-.61.21.44.44,0,0,0,.21.61l.51.26a4.66,4.66,0,0,0-.16,2.86l-.54.2a.46.46,0,0,0,.16.89l.15,0,.54-.19a4.81,4.81,0,0,0,2,2.12l-.23.51a.45.45,0,0,0,.23.61.41.41,0,0,0,.19,0,.44.44,0,0,0,.41-.27l.23-.5a4.8,4.8,0,0,0,1.55.26A4.73,4.73,0,0,0,212.15,174Zm-3.1-1.15a3.84,3.84,0,0,1-1.94-2.26,3.89,3.89,0,0,1,3.71-5.1,3.89,3.89,0,1,1-1.77,7.36Z"/><path class="cls-11" d="M228.09,168.64a.45.45,0,0,0-.73-.12l-.87.86a1.06,1.06,0,0,1-1.5-1.5l.86-.86a.47.47,0,0,0,.13-.4.45.45,0,0,0-.24-.34,5.35,5.35,0,0,0-7.75,5.46l-7,7a3.28,3.28,0,0,0,4.64,4.64l7-7a5.35,5.35,0,0,0,5.46-7.74Zm-1.62,5.56a4.47,4.47,0,0,1-3.92,1.23.45.45,0,0,0-.4.13L215,182.75a2.36,2.36,0,0,1-3.34-3.34l7.19-7.18a.51.51,0,0,0,.13-.41,4.43,4.43,0,0,1,5.78-5l-.38.38a2,2,0,0,0,2.8,2.8l.38-.38A4.41,4.41,0,0,1,226.47,174.2Z"/><path class="cls-11" d="M208.51,162.61h0a1.13,1.13,0,0,0,1-.54l4.42-7.24a1.09,1.09,0,0,0,0-1.13,1.12,1.12,0,0,0-1-.6l-3.56-.09a22.13,22.13,0,0,1,17.4-15.81.45.45,0,0,0,.37-.53.46.46,0,0,0-.53-.38A23.06,23.06,0,0,0,208.48,153l-4-.1a1.15,1.15,0,0,0-1,.54,1.16,1.16,0,0,0,0,1.14l4.06,7.45A1.12,1.12,0,0,0,208.51,162.61Zm-4.22-8.48a.21.21,0,0,1,0-.22.2.2,0,0,1,.18-.1h0l3.77.09.94,0L213,154a.21.21,0,0,1,.18.11.24.24,0,0,1,0,.22l-4.43,7.24a.23.23,0,0,1-.19.1.2.2,0,0,1-.18-.11l-4.06-7.45Z"/><path class="cls-11" d="M253.85,161.84a1.13,1.13,0,0,0-1.88-.57l-6.17,5.83a1.11,1.11,0,0,0-.32,1.09,1.09,1.09,0,0,0,.78.82l3.41,1a22.13,22.13,0,0,1-20.94,10.7.48.48,0,0,0-.5.42.47.47,0,0,0,.42.5c.69.06,1.37.09,2.06.09a23,23,0,0,0,19.87-11.44l3.8,1.14a1.26,1.26,0,0,0,.33.05,1.14,1.14,0,0,0,1.11-1.4Zm1,8.67a.22.22,0,0,1-.21.05L251,169.48l-.9-.27-3.61-1.08a.21.21,0,0,1-.15-.16.22.22,0,0,1,.06-.21l6.17-5.82a.24.24,0,0,1,.14-.06h.07a.22.22,0,0,1,.15.16l2,8.25A.22.22,0,0,1,254.86,170.51Z"/><path class="cls-5" d="M340.72,407.55H319.2a.45.45,0,0,0-.46.46.46.46,0,0,0,.46.46h21.52a.46.46,0,0,0,.46-.46A.45.45,0,0,0,340.72,407.55Z"/><path class="cls-5" d="M340.72,411.65H319.2a.45.45,0,0,0-.46.46.46.46,0,0,0,.46.46h21.52a.46.46,0,0,0,.46-.46A.45.45,0,0,0,340.72,411.65Z"/><path class="cls-5" d="M340.72,415.75H319.2a.45.45,0,0,0-.46.46.46.46,0,0,0,.46.46h21.52a.46.46,0,0,0,.46-.46A.45.45,0,0,0,340.72,415.75Z"/><path class="cls-5" d="M329.45,419.85H319.2a.45.45,0,0,0-.46.46.46.46,0,0,0,.46.46h10.25a.47.47,0,0,0,.46-.46A.46.46,0,0,0,329.45,419.85Z"/><path class="cls-5" d="M339.45,426l-.07,1.66a.33.33,0,0,0,.33.33.31.31,0,0,0,.2-.07l1.24-1.08-.19-.07-1.34-.64A.76.76,0,0,1,339.45,426Z"/><path class="cls-5" d="M352.66,406l-1-.45.39-.81a1.18,1.18,0,0,0-.56-1.57l-.22-.11a1.25,1.25,0,0,0-.5-.11,1.19,1.19,0,0,0-1.07.67l-4.55,9.53a.57.57,0,0,0,.27.75l1.33.64a.69.69,0,0,0,.24.05.56.56,0,0,0,.51-.32l3.85-8.07.62.3-3.36,7a.37.37,0,0,0,.17.48l.1,0H349a.38.38,0,0,0,.33-.2l3.51-7.37a.39.39,0,0,0,0-.28A.43.43,0,0,0,352.66,406Z"/><path class="cls-5" d="M338.5,426.64l-.41-.61c-.17-.26-.33-.27-.44-.24a.43.43,0,0,0-.23.23,4.26,4.26,0,0,0-.22.69,2.94,2.94,0,0,1-.3.8.36.36,0,0,1-.2.19h-.06c-.18,0-.34-.26-.41-.42a5.59,5.59,0,0,1-.42-2.28.13.13,0,0,0-.1-.12.11.11,0,0,0-.13.09,5.64,5.64,0,0,1-.53,1.3c-.06.13-.2.34-.35.3s-.17-.13-.22-.22a2.81,2.81,0,0,1-.34-.93.1.1,0,0,0-.1-.09.12.12,0,0,0-.12.07,2.61,2.61,0,0,1-.59,1,.75.75,0,0,1-.51.28l-.11,0a37.38,37.38,0,0,0,.58-6.48,3.59,3.59,0,0,0-.16-1.35.34.34,0,0,0-.13-.18.24.24,0,0,0-.22,0,.54.54,0,0,0-.32.31,20,20,0,0,0-2.08,10.48.12.12,0,0,0,.11.11h0a.12.12,0,0,0,.11-.13A19.76,19.76,0,0,1,332.66,419a.37.37,0,0,1,.18-.19h0a.56.56,0,0,1,.05.08,3.52,3.52,0,0,1,.14,1.27,37.11,37.11,0,0,1-.56,6.35,1.33,1.33,0,0,1-.28-.54,3.26,3.26,0,0,1-.09-.53v-.71a.13.13,0,0,0-.11-.12h0a.13.13,0,0,0-.12.11,3.66,3.66,0,0,0,0,.74l0,3.51a.11.11,0,0,0,.1.11.12.12,0,0,0,.13-.08c.2-.69.37-1.39.52-2.13l.15,0a.93.93,0,0,0,.67-.35,2.61,2.61,0,0,0,.51-.72,3.19,3.19,0,0,0,.28.66.59.59,0,0,0,.37.32c.15,0,.39,0,.61-.4a6.89,6.89,0,0,0,.34-.73,5.58,5.58,0,0,0,.42,1.7c.13.32.4.65.74.55a.58.58,0,0,0,.34-.29,3.44,3.44,0,0,0,.32-.86,4.12,4.12,0,0,1,.21-.65c0-.06.06-.1.09-.11s.11.05.18.15l.59.87.49.73a.11.11,0,0,0,.16,0,.12.12,0,0,0,0-.16Zm-6.36,1.49v-1.75a1.22,1.22,0,0,0,.32.39C332.36,427.23,332.26,427.69,332.14,428.13Z"/><circle class="cls-5" cx="318.75" cy="391.16" r="1.03"/><path class="cls-5" d="M361.43,389l-6.12-.62a.46.46,0,0,0-.34.1.47.47,0,0,0-.16.31l-.13,1.27-4-.79-3.14-4.64a.42.42,0,0,0-.29-.19l-8.16-1.58h0l-5-1a.53.53,0,0,0-.35.07l-4.64,3.15-4.46-.86.31-1a.47.47,0,0,0,0-.35.45.45,0,0,0-.27-.22l-5.9-1.76a.46.46,0,0,0-.57.31.46.46,0,0,0,.31.57h0l5.45,1.63-3.25,10.9-5.45-1.62h0a.47.47,0,0,0-.58.31.46.46,0,0,0,.31.57l1,.29a1.46,1.46,0,0,0-.27.85v35.88a1.49,1.49,0,0,0,1.49,1.49h25.63a1.49,1.49,0,0,0,1.48-1.49V420.51l2.42-5.07a1.31,1.31,0,0,1-.28-.09l-1.32-.64a1,1,0,0,1-.24-.17l-.58,1.21v-12.6c.1,0,.2,0,.3,0a2.67,2.67,0,0,0,1.47-.45,2.64,2.64,0,0,0,1.11-1.68,2.81,2.81,0,0,0,0-.5,2.43,2.43,0,0,0,.48.14,2.07,2.07,0,0,0,.5.05,2.6,2.6,0,0,0,1.47-.45,2.57,2.57,0,0,0,.49-.44l3.53.36-.08.8a.46.46,0,0,0,.41.51l6.12.62h0a.46.46,0,0,0,.05-.92h0l-5.66-.57,1.15-11.33,5.66.58h0a.46.46,0,0,0,.09-.92Zm-18.09,28.69-3.46,7.25a.28.28,0,0,0,.13.38l1.34.64a.27.27,0,0,0,.12,0,.29.29,0,0,0,.26-.16l1.61-3.38v8.12a.57.57,0,0,1-.56.57H317.15a.57.57,0,0,1-.57-.57V394.68a.56.56,0,0,1,.4-.53l3.85,1.15.13,0a.43.43,0,0,0,.22-.06.45.45,0,0,0,.22-.27l.26-.88h.56l2.75.53a2.34,2.34,0,0,0,.37,1,2.25,2.25,0,0,0,1.36.93,2.6,2.6,0,0,0-.43,1,2.77,2.77,0,0,0,0,.76h-7a.46.46,0,1,0,0,.92h7.31a2.69,2.69,0,0,0,.16.29,2.6,2.6,0,0,0,1.68,1.11,2.94,2.94,0,0,0,.51.05,2.57,2.57,0,0,0,1-.22,2.62,2.62,0,0,0,2.1,3l.18,0h-13a.45.45,0,0,0-.46.46.46.46,0,0,0,.46.46h16l.16.23a2.26,2.26,0,0,0,3.89-.23h.54a2.24,2.24,0,0,0,.84.35,2.09,2.09,0,0,0,.43,0,2.26,2.26,0,0,0,2.23-1.9l.06,0Zm-6.17-18.54a1.65,1.65,0,0,1-.72,1.09l-3,2a1.72,1.72,0,0,1-2.38-.46,1.72,1.72,0,0,1,.46-2.38l3-2a1.73,1.73,0,0,1,1.29-.26,1.71,1.71,0,0,1,1.35,2Zm1.18,3.42a1.36,1.36,0,0,1,.21,1,1.36,1.36,0,0,1-2.45.5L335,402.36l2-1.37.2-.17Zm-3.78.89H332.9A2.55,2.55,0,0,0,334,403l.22-.14Zm.17-7.92a1.74,1.74,0,0,1-.73,1.1l-4.2,2.84a1.7,1.7,0,0,1-1.28.27,1.74,1.74,0,0,1-1.1-.73,1.69,1.69,0,0,1-.26-1.28,1.73,1.73,0,0,1,.72-1.1l4.2-2.84a1.72,1.72,0,0,1,2.65,1.74Zm-5-1.74a1.33,1.33,0,0,1-.56.86l-.84.57-.37.25a1.35,1.35,0,0,1-1.87-.37,1.34,1.34,0,0,1,.36-1.87l1.2-.82a1.38,1.38,0,0,1,.76-.23,1.34,1.34,0,0,1,1.32,1.61Zm20.1,4.65a1.77,1.77,0,0,1-.72,1.1,1.73,1.73,0,0,1-2.39-.46l-3.94-5.82h0l-.67-1a.46.46,0,1,0-.76.51L346,399.6a1.65,1.65,0,0,1,.26,1.28,1.69,1.69,0,0,1-.72,1.1,1.72,1.72,0,0,1-2.38-.46l-.2-.3h0l-3.66-5.4h0l-.75-1.1a.46.46,0,1,0-.76.51l.92,1.37h0l3.49,5.14a1.36,1.36,0,0,1-.37,1.88,1.33,1.33,0,0,1-1,.21,1.34,1.34,0,0,1-.86-.57l-.81-1.2h0l-1.33-2a2.57,2.57,0,0,0,.3-.77,2.63,2.63,0,0,0-2.58-3.13,2.54,2.54,0,0,0,.14-.47,2.63,2.63,0,0,0-4.06-2.68l-.9.61a2.27,2.27,0,0,0-3.54-2l-1.2.81a2.23,2.23,0,0,0-.89,1.26l-3.09-.6,2.38-8,4.74.91a.45.45,0,0,0,.34-.07l4.65-3.15,3.75.73-3.88,2.62a.47.47,0,0,0-.18.51,4.19,4.19,0,0,0,3,2.92,4.11,4.11,0,0,0,3.67-1.38l3.58.69,5.58,8.25A1.7,1.7,0,0,1,349.84,398.44Zm3.9.86-3.11-.31c0-.12.08-.24.11-.37a2.65,2.65,0,0,0-.4-2l-3.94-5.82h0l-1.75-2.58a.52.52,0,0,0-.3-.2l-3.89-.75a.7.7,0,0,0-.65.23,3.26,3.26,0,0,1-2.89,1.18,3.14,3.14,0,0,1-2.16-2l4.34-2.94,7.79,1.5,3.14,4.65a.42.42,0,0,0,.29.19l4.26.84Z"/><path class="cls-5" d="M357.7,398.33a1,1,0,1,0,1-1A1,1,0,0,0,357.7,398.33Z"/><path class="cls-6" d="M251.38,427.73h-4.52v-21.8a.45.45,0,0,0-.46-.46h-2.49l-.89-14.8a.46.46,0,0,0-.46-.43h-4.71a.45.45,0,0,0-.46.43l-.9,14.8h-1.23l-.89-14.8a.47.47,0,0,0-.46-.43h-4.72a.47.47,0,0,0-.46.43l-.89,14.8h-3.16V399.3a.47.47,0,0,0-.29-.43.46.46,0,0,0-.5.1l-6,6V399.3a.46.46,0,0,0-.78-.33l-6.82,6.82a.47.47,0,0,0-.14.33v21.61h-3.21a.46.46,0,0,0-.46.46.45.45,0,0,0,.46.46h44.44a.45.45,0,0,0,.46-.46A.46.46,0,0,0,251.38,427.73Zm-13.1-36.57h3.85l.86,14.31h-5.57Zm-8.65,0h3.84l.87,14.31h-5.58Zm-11.18,36.57h-3.13v-12h3.13Zm11.62,0H227v-12h3.12Zm11.63,0h-3.13v-12h3.13Zm4.24,0h-3.32V415.32a.47.47,0,0,0-.46-.46h-4a.47.47,0,0,0-.46.46v12.41H231V415.32a.46.46,0,0,0-.46-.46h-4a.46.46,0,0,0-.46.46v12.41h-6.66V415.32a.47.47,0,0,0-.46-.46h-4a.46.46,0,0,0-.46.46v12.41h-3.33V406.31l5.9-5.9v5.67a.46.46,0,0,0,.29.43.46.46,0,0,0,.5-.1l6-6v5.52a.46.46,0,0,0,.46.46h21.72Z"/><path class="cls-6" d="M231.55,388.9a2.44,2.44,0,0,0,2.3-1.62A2.83,2.83,0,0,0,236,385.9a3.16,3.16,0,1,0-3-4.18,2.81,2.81,0,0,0-2.2,2.43,2.44,2.44,0,0,0,.81,4.75Zm-.29-3.94a.47.47,0,0,0,.37-.49,1.9,1.9,0,0,1,1.72-1.88.45.45,0,0,0,.4-.35,2.23,2.23,0,1,1,2.1,2.73h-.11a.44.44,0,0,0-.46.27,1.9,1.9,0,0,1-1.74,1.14h0a.47.47,0,0,0-.49.38,1.52,1.52,0,0,1-3-.29A1.53,1.53,0,0,1,231.26,385Z"/><path class="cls-6" d="M238.49,387.74a2,2,0,0,0,3.88.73,2.28,2.28,0,0,0,1.63-1.06,2.56,2.56,0,1,0-2.49-3.45,2.3,2.3,0,0,0-1.74,1.91A2,2,0,0,0,238.49,387.74Zm1.8-1.07a.48.48,0,0,0,.37-.48,1.37,1.37,0,0,1,1.25-1.36.45.45,0,0,0,.4-.36,1.64,1.64,0,1,1,1.6,2l-.14,0a.45.45,0,0,0-.46.28,1.38,1.38,0,0,1-1.29.82.43.43,0,0,0-.46.37,1.08,1.08,0,0,1-2.15-.2A1.09,1.09,0,0,1,240.29,386.67Z"/><path class="cls-7" d="M413.11,340.56l2.07-.9,3.46,4.13a.46.46,0,0,0,.35.17.43.43,0,0,0,.19,0l5.59-2.44a.47.47,0,0,0,.28-.43l-.18-5.92a.47.47,0,0,0-.46-.45h0a.46.46,0,0,0-.44.47l0,1.6-3.81,1.66a.46.46,0,0,0-.24.61.45.45,0,0,0,.42.27.39.39,0,0,0,.18,0l3.49-1.51.09,3-5,2.18-3.45-4.13a.46.46,0,0,0-.54-.13l-2.39,1a.46.46,0,0,0,.37.84Z"/><path class="cls-7" d="M421.52,344.31a1.54,1.54,0,0,0-2,2.05,1.54,1.54,0,0,0,1.41.92,1.49,1.49,0,0,0,.61-.13,1.54,1.54,0,0,0-.05-2.84Zm-.32,2a.64.64,0,0,1-.47,0,.64.64,0,0,1-.34-.33.62.62,0,0,1,.32-.82.7.7,0,0,1,.25-.05.59.59,0,0,1,.22.05.57.57,0,0,1,.34.32A.62.62,0,0,1,421.2,346.31Z"/><path class="cls-7" d="M424.25,342.63a1.53,1.53,0,0,0-.79,2,1.49,1.49,0,0,0,.85.82,1.55,1.55,0,0,0,.56.11,1.59,1.59,0,0,0,.61-.13,1.54,1.54,0,0,0,.8-2,1.49,1.49,0,0,0-.85-.82A1.51,1.51,0,0,0,424.25,342.63Zm.85.83a.64.64,0,0,1,.34.33.59.59,0,0,1,0,.47.57.57,0,0,1-.32.34.61.61,0,0,1-.48,0,.64.64,0,0,1-.34-.33.64.64,0,0,1,0-.47.61.61,0,0,1,.33-.34.56.56,0,0,1,.25-.05A.62.62,0,0,1,425.1,343.46Z"/><path class="cls-7" d="M394.87,340.8l-1.27,1.72-1.27-1.72a.45.45,0,0,0-.37-.19h-4.33a.45.45,0,0,0-.46.46.46.46,0,0,0,.46.46h4.1l1.3,1.76-1.3,1.77h-4.1a.46.46,0,0,0-.46.46.45.45,0,0,0,.46.46H392a.45.45,0,0,0,.37-.19l1.27-1.72,1.27,1.72a.44.44,0,0,0,.37.19H398v.67a.68.68,0,0,0,.33.55.65.65,0,0,0,.64,0l1.92-1.14a.64.64,0,0,0,0-1.11l-2-1.1a.64.64,0,0,0-.64,0,.66.66,0,0,0-.31.56v.65h-2.49l-1.3-1.77,1.3-1.76H398v.66a.65.65,0,0,0,.33.55.56.56,0,0,0,.31.09.66.66,0,0,0,.33-.09l1.92-1.14a.65.65,0,0,0,.32-.56.63.63,0,0,0-.33-.55l-2-1.1a.64.64,0,0,0-.64,0,.65.65,0,0,0-.31.56v.65h-2.72A.44.44,0,0,0,394.87,340.8Zm5.11,4.71-1.09.64,0-1.26Zm0-4.46-1.09.65,0-1.27Z"/><path class="cls-7" d="M429.49,354.41H384.87a2.3,2.3,0,0,0-2.3,2.3v.92h49.22v-.92A2.3,2.3,0,0,0,429.49,354.41Zm-46,2.3a1.38,1.38,0,0,1,1.38-1.38h44.62a1.38,1.38,0,0,1,1.38,1.38Z"/><path class="cls-7" d="M430.41,322.21h-9.2V312.09s0,0,0-.06l0-.06a.43.43,0,0,0-.11-.21l-5.64-5.64a.5.5,0,0,0-.21-.12h-16.4a1.35,1.35,0,0,0-1.35,1.35v14.88H384a1.38,1.38,0,0,0-1.38,1.38v28.06A1.38,1.38,0,0,0,384,353h46.46a1.38,1.38,0,0,0,1.38-1.38V323.59A1.38,1.38,0,0,0,430.41,322.21Zm-14.85-14.66,2,2,2,2H416a.44.44,0,0,1-.43-.43Zm-17.17,17.81v-18a.44.44,0,0,1,.43-.43h15.82v4.3a1.36,1.36,0,0,0,1.35,1.35h4.3v23a.43.43,0,0,1-.43.43h-21a.43.43,0,0,1-.43-.43Zm.43,11.57h21a1.36,1.36,0,0,0,1.35-1.35V325.36h7a.4.4,0,0,1,.4.39v22.58a.4.4,0,0,1-.4.4H386.11a.4.4,0,0,1-.39-.4V325.75a.4.4,0,0,1,.39-.39h11.36v10.22A1.35,1.35,0,0,0,398.82,336.93Zm32.05,14.72a.47.47,0,0,1-.46.46H384a.46.46,0,0,1-.46-.46V323.59a.45.45,0,0,1,.46-.46h13.52v1.44H386.11a1.18,1.18,0,0,0-1.18,1.18v22.58a1.18,1.18,0,0,0,1.18,1.18h42.13a1.18,1.18,0,0,0,1.18-1.18V325.75a1.18,1.18,0,0,0-1.18-1.18h-7v-1.44h9.2a.46.46,0,0,1,.46.46Z"/><path class="cls-7" d="M400.5,311.79a1.1,1.1,0,0,1-.84-.38l-.2.25a1.32,1.32,0,0,0,1,.43c.72,0,1-.4,1-.79,0-.56-.5-.69-.93-.81s-.65-.17-.65-.44.23-.42.55-.42a1,1,0,0,1,.77.32l.2-.25a1.27,1.27,0,0,0-1-.37c-.52,0-.91.3-.91.74s.47.65.9.76.68.18.68.5S401,311.79,400.5,311.79Z"/><path class="cls-7" d="M402.25,311.45h1.35l.24.59h.37l-1.08-2.67h-.41L401.65,312H402Zm.68-1.78.57,1.48h-1.15Z"/><polygon class="cls-7" points="406.13 311.74 404.89 311.74 404.89 309.37 404.56 309.37 404.56 312.04 406.13 312.04 406.13 311.74"/><polygon class="cls-7" points="408.34 311.74 406.93 311.74 406.93 310.82 408.31 310.82 408.31 310.53 406.93 310.53 406.93 309.67 408.34 309.67 408.34 309.37 406.59 309.37 406.59 312.04 408.34 312.04 408.34 311.74"/><path class="cls-7" d="M409.74,311.79a1.13,1.13,0,0,1-.84-.38l-.19.25a1.31,1.31,0,0,0,1,.43c.72,0,1-.4,1-.79,0-.56-.49-.69-.93-.81s-.64-.17-.64-.44.22-.42.54-.42a1,1,0,0,1,.77.32l.2-.25a1.25,1.25,0,0,0-.94-.37c-.53,0-.92.3-.92.74s.48.65.9.76.68.18.68.5S410.22,311.79,409.74,311.79Z"/><path class="cls-7" d="M414.9,322.21a1.92,1.92,0,0,0,1.21.92l.53.16,0,1.28,0,.79v.14a2,2,0,0,1-.56-.14,2.5,2.5,0,0,1-1.05-.73l-.47.57a1.37,1.37,0,0,0,.18.16,2.91,2.91,0,0,0,1.89.82V327h.55v-.82a2,2,0,0,0,1.69-.82,1.72,1.72,0,0,0,.26-.79s0-.08,0-.12a1.45,1.45,0,0,0-.69-1.32,4.69,4.69,0,0,0-1.21-.51v-.41l0-1.56a2.14,2.14,0,0,1,1.33.71l.46-.55a2.67,2.67,0,0,0-1.78-.85l0-.85h-.56v.83a1.82,1.82,0,0,0-1.92,1.65A1.5,1.5,0,0,0,414.9,322.21Zm2.26,3.15v-.79l0-1.12c.62.2,1.15.43,1.14,1.05,0,0,0,.05,0,.07a1,1,0,0,1-.58.79,1.59,1.59,0,0,1-.58.14Zm-.48-4.75,0,1.6v.26a3.87,3.87,0,0,1-.64-.26.75.75,0,0,1-.46-.66C415.56,321,416,320.64,416.68,320.61Z"/><path class="cls-7" d="M415.68,328.93h-2.17V318.86a.46.46,0,0,0-.46-.46.45.45,0,0,0-.46.46v10.07h-2.18v-7.72a.46.46,0,0,0-.46-.46.45.45,0,0,0-.46.46v7.72H407.3v-9.19a.46.46,0,0,0-.46-.46.47.47,0,0,0-.46.46v9.19H404.2v-6.11a.47.47,0,0,0-.46-.46.46.46,0,0,0-.46.46v6.11h-2.4V314.25a.46.46,0,0,0-.46-.46.47.47,0,0,0-.46.46v15.14a.47.47,0,0,0,.46.46h15.26a.46.46,0,1,0,0-.92Z"/><path class="cls-7" d="M413.09,316.1l-2.68,2.68-2.64-2.65a.48.48,0,0,0-.65,0l-4.74,4.75a.46.46,0,0,0,0,.65.45.45,0,0,0,.32.14.47.47,0,0,0,.33-.14l4.42-4.42,2.64,2.64a.43.43,0,0,0,.32.14.45.45,0,0,0,.33-.14l3-3,.46.45a.18.18,0,0,0,.29-.08L415,315a.18.18,0,0,0-.22-.21l-2.09.58a.17.17,0,0,0-.07.29Z"/><path class="cls-12" d="M136,239.57h7.5a2.45,2.45,0,0,0,4.85,0h5.49a.35.35,0,0,0,.35-.35v-7.05a.35.35,0,0,0-.1-.24l-3.53-3.52a.31.31,0,0,0-.24-.1h-5.15v-2.8a.34.34,0,0,0-.34-.34H129.12a.34.34,0,0,0-.34.34v13.71a.34.34,0,0,0,.34.35h2a2.44,2.44,0,0,0,4.84,0Zm11.66,0a1.77,1.77,0,0,1-3.47,0,1.51,1.51,0,0,1,0-.69,1.77,1.77,0,0,1,3.47,0,2,2,0,0,1,0,.34A2,2,0,0,1,147.67,239.57ZM129.47,229v-3.14h15v9h-15Zm0,9.88v-3.34h15.37a.34.34,0,0,0,.34-.34V229h5l3.32,3.31v6.57h-5.15a2.45,2.45,0,0,0-4.85,0H136a2.44,2.44,0,0,0-4.84,0Zm4.12,2.11a1.76,1.76,0,0,1-1.73-1.42,1.34,1.34,0,0,1,0-.35,1.32,1.32,0,0,1,0-.34,1.76,1.76,0,0,1,3.46,0,1.32,1.32,0,0,1,0,.34,1.34,1.34,0,0,1,0,.35A1.76,1.76,0,0,1,133.59,241Z"/><path class="cls-12" d="M146.94,235.54h5a.35.35,0,0,0,.34-.35V232.9a.33.33,0,0,0-.1-.25l-2.52-2.54a.39.39,0,0,0-.25-.1h-2.43a.34.34,0,0,0-.35.34v4.84A.35.35,0,0,0,146.94,235.54Zm.34-4.84h1.95l2.32,2.34v1.81h-4.27Z"/><path class="cls-12" d="M180.53,230.68h-.89v-10a.35.35,0,0,0-.35-.35h-1l-.4-6.72a.34.34,0,0,0-.34-.32h-2.19a.34.34,0,0,0-.34.32l-.4,6.72h-.33l-.4-6.72a.35.35,0,0,0-.35-.32h-2.18a.34.34,0,0,0-.34.32l-.41,6.72h-5.21v-2.72a.35.35,0,0,0-.21-.32.36.36,0,0,0-.38.08L162.24,220v-2.31a.36.36,0,0,0-.22-.32.34.34,0,0,0-.37.08l-3.16,3.15a.37.37,0,0,0-.1.25v9.86H156a.35.35,0,0,0-.34.35.34.34,0,0,0,.34.34h24.56a.35.35,0,0,0,.35-.34A.35.35,0,0,0,180.53,230.68ZM175.66,214h1.53l.38,6.35h-2.29Zm-4,0h1.53l.38,6.35h-2.3Zm-9.43,16.65h-1.18v-5.26h1.18Zm7.57,0h-1.18v-5.26h1.18Zm7.57,0h-1.18v-5.26h1.18Zm1.58,0h-.89v-5.61a.34.34,0,0,0-.34-.34h-1.87a.35.35,0,0,0-.35.34v5.61h-5v-5.61a.34.34,0,0,0-.34-.34h-1.88a.34.34,0,0,0-.34.34v5.61h-5v-5.61a.35.35,0,0,0-.35-.34H160.7a.34.34,0,0,0-.34.34v5.61h-1.28V221l2.47-2.46v2.3a.35.35,0,0,0,.21.32.34.34,0,0,0,.37-.08l2.55-2.54v2.23a.35.35,0,0,0,.35.34H179Z"/><path class="cls-12" d="M172.42,212.56a1.27,1.27,0,0,0,1.16-.77,1.42,1.42,0,0,0,1-.62,1.59,1.59,0,0,0-.09-3.18,1.57,1.57,0,0,0-1.48,1,1.43,1.43,0,0,0-1,1.14,1.27,1.27,0,0,0,.49,2.43Zm-.11-1.83a.35.35,0,0,0,.28-.35.74.74,0,0,1,.68-.74.35.35,0,0,0,.3-.27.9.9,0,0,1,1.78.21.91.91,0,0,1-1,.89h0a.34.34,0,0,0-.35.21.73.73,0,0,1-.69.44h0a.36.36,0,0,0-.34.28.57.57,0,0,1-.56.47.58.58,0,0,1-.57-.58A.57.57,0,0,1,172.31,210.73Z"/><path class="cls-12" d="M177.73,212.56a1.08,1.08,0,0,0,1-.61,1.17,1.17,0,0,0,.73-.48,1.32,1.32,0,0,0-.11-2.63,1.3,1.3,0,0,0-1.21.8,1.19,1.19,0,0,0-.82.9,1.06,1.06,0,0,0,.45,2Zm-.07-1.43a.36.36,0,0,0,.28-.35.51.51,0,0,1,.46-.5.34.34,0,0,0,.3-.26.62.62,0,0,1,1.23.14c0,.35-.25.59-.67.62a.37.37,0,0,0-.35.2.5.5,0,0,1-.47.31h0a.34.34,0,0,0-.34.28.37.37,0,0,1-.36.3.38.38,0,0,1-.37-.37A.38.38,0,0,1,177.66,211.13Z"/><path class="cls-12" d="M133.94,224a1.16,1.16,0,0,0,1.13.13l7.79-3.36a1.13,1.13,0,0,0,.23-2l-2.85-2.13a22.11,22.11,0,0,1,23.33-2.87.46.46,0,1,0,.4-.83,23.07,23.07,0,0,0-24.5,3.13l-3.18-2.37a1.1,1.1,0,0,0-1.13-.13,1.12,1.12,0,0,0-.68.91l-1,8.42A1.15,1.15,0,0,0,133.94,224Zm1.46-9.36a.21.21,0,0,1,.13-.18.19.19,0,0,1,.21,0l3,2.25.75.56,3,2.26a.21.21,0,0,1,.09.19.25.25,0,0,1-.13.18l-7.79,3.35a.22.22,0,0,1-.22,0,.21.21,0,0,1-.08-.2Z"/><path class="cls-12" d="M155.37,255.13l-6.79-5.07a1.14,1.14,0,0,0-1.81.78l-.42,3.54a22.08,22.08,0,0,1-11.76-10.47.47.47,0,0,0-.62-.2.47.47,0,0,0-.2.62,23.06,23.06,0,0,0,12.47,11l-.46,3.94a1.15,1.15,0,0,0,1.12,1.27,1.22,1.22,0,0,0,.46-.09l7.78-3.36a1.13,1.13,0,0,0,.23-1.95Zm-.59,1.11L147,259.59a.2.2,0,0,1-.21,0,.21.21,0,0,1-.09-.2l.44-3.74.11-.93.44-3.76a.22.22,0,0,1,.13-.17l.09,0a.2.2,0,0,1,.13.05l6.79,5.06a.21.21,0,0,1,.09.2A.23.23,0,0,1,154.78,256.24Z"/><path class="cls-12" d="M177.29,233a1.15,1.15,0,0,0-.91-.68,1.18,1.18,0,0,0-1,.45l-5.07,6.8a1.14,1.14,0,0,0,.78,1.81l3.55.42A21.94,21.94,0,0,1,171,248a.45.45,0,0,0,.06.64.48.48,0,0,0,.29.11.46.46,0,0,0,.36-.17,22.78,22.78,0,0,0,3.83-6.67l3.94.46h.13a1.14,1.14,0,0,0,.91-.46,1.1,1.1,0,0,0,.13-1.13Zm2.48,8.37a.19.19,0,0,1-.2.09l-3.73-.44-.93-.11-3.76-.44a.2.2,0,0,1-.17-.13.2.2,0,0,1,0-.22l5.07-6.8a.21.21,0,0,1,.17-.08h0a.2.2,0,0,1,.18.13l3.35,7.79A.2.2,0,0,1,179.77,241.32Z"/><path class="cls-12" d="M175.62,253.89a2.75,2.75,0,0,0-1.72-4.9,2.74,2.74,0,0,0-1.71,4.9l-.22.1a5.05,5.05,0,0,0-2.76-2.4,2.71,2.71,0,0,0,1-2.14,2.76,2.76,0,0,0-5.52,0,2.73,2.73,0,0,0,1,2.14A5.09,5.09,0,0,0,163,254l-.22-.1a2.71,2.71,0,0,0,1-2.14,2.76,2.76,0,1,0-4.47,2.14,5.08,5.08,0,0,0-3.17,3.49.44.44,0,0,0,.08.4.47.47,0,0,0,.36.18h21.69a.49.49,0,0,0,.37-.18.51.51,0,0,0,.08-.4A5.08,5.08,0,0,0,175.62,253.89Zm-16.37-2.14a1.84,1.84,0,1,1,1.84,1.84A1.84,1.84,0,0,1,159.25,251.75ZM162.5,257h-5.21a4.11,4.11,0,0,1,5.38-2.21,5.08,5.08,0,0,0-.23,1.52A4.2,4.2,0,0,0,162.5,257Zm3.16-7.59a1.84,1.84,0,1,1,1.84,1.84A1.84,1.84,0,0,1,165.66,249.45Zm5.91,7.59h-8.14a3.44,3.44,0,0,1-.07-.69,4.33,4.33,0,0,1,.49-1.92,4.11,4.11,0,0,1,7.3,0,4.62,4.62,0,0,1,.34.87,4,4,0,0,1,.15,1.05A3.51,3.51,0,0,1,171.57,257Zm.49-5.29a1.84,1.84,0,1,1,1.84,1.84A1.84,1.84,0,0,1,172.06,251.75Zm.44,5.29a4.2,4.2,0,0,0,.06-.69,5.08,5.08,0,0,0-.23-1.52A4.09,4.09,0,0,1,177.7,257Z"/><path class="cls-9" d="M423.76,243.4a.92.92,0,0,0,.2-.75,8.75,8.75,0,0,0-6.93-7.11V234.1a4.94,4.94,0,0,0,1.92-2.78,2.35,2.35,0,0,0,1.05-2.17,2.32,2.32,0,0,0-.49-1.71v-1.27c0-.11,0-.24,0-.39a5.29,5.29,0,0,0-2.44-5.36,5.83,5.83,0,0,0-2.83-.49,18,18,0,0,0-3.83.39,3,3,0,0,0-1.59,1.18c-.42,0-.86-.05-1.3-.05a5.06,5.06,0,0,0-1.25-1,5.79,5.79,0,0,0-2.82-.49,18.11,18.11,0,0,0-3.84.39,3.61,3.61,0,0,0-2.21,2.23,6.54,6.54,0,0,0-.47,3.23c0,.15,0,.28,0,.39v1.27a2.32,2.32,0,0,0-.5,1.71,2,2,0,0,0,1.05,2,4.18,4.18,0,0,0,1.93,3v1.38a8.75,8.75,0,0,0-6.93,7.11.92.92,0,0,0,.2.75,1,1,0,0,0,.71.32h4.24a7,7,0,0,0-.18.77.92.92,0,0,0,.91,1.07h19.13a1,1,0,0,0,.71-.32.92.92,0,0,0,.2-.75,7,7,0,0,0-.18-.77h4.81A1,1,0,0,0,423.76,243.4Zm-25.8-.6h-4.55s1-6,6.94-6.45v-2.74a3.34,3.34,0,0,1-2-3.21h-.15c-.28,0-.85-.14-.85-1.26,0-.89.18-1.07.33-1.07a.28.28,0,0,1,.17.08v-2a6.75,6.75,0,0,1,.36-3.21c.08-.17.63-1.49,1.63-1.75a17.24,17.24,0,0,1,3.6-.36,5.43,5.43,0,0,1,2.35.36,3.27,3.27,0,0,1,.41.28,4.19,4.19,0,0,0-1.77.45,5.37,5.37,0,0,0-2.48,5.43c0,.15,0,.28,0,.39v1.31a1.25,1.25,0,0,0-.33.49,3.33,3.33,0,0,0-.17,1.22,2.36,2.36,0,0,0,1.07,2.2,4.88,4.88,0,0,0,1.95,2.82v1.49A8.61,8.61,0,0,0,398,242.8Zm10,1.84h-9.57s1-6,7.05-6.54v-2.78s-2-1.15-2-3c0,0-1,0-1-1.51,0-.9.18-1.08.32-1.08a.29.29,0,0,1,.18.08v-2c0-1-.5-3.52,2-5a5.46,5.46,0,0,1,2.39-.37,17.7,17.7,0,0,1,3.66.37,4.2,4.2,0,0,0,1.07.17,3.09,3.09,0,0,0,1.45-.42h0c.11,0-1,1.85-.88,2a7,7,0,0,1,.36,3.26v2a.29.29,0,0,1,.18-.08c.14,0,.33.18.33,1.08,0,1.15-.58,1.29-.86,1.29a.52.52,0,0,1-.15,0,3.41,3.41,0,0,1-2,3.27v2.78c6.05.5,7.05,6.54,7.05,6.54Zm10-1.84a8.61,8.61,0,0,0-6.55-5.51v-1.42a4.26,4.26,0,0,0,2-3,2,2,0,0,0,1.07-2.05,2.28,2.28,0,0,0-.51-1.72v-1.3c0-.11,0-.24,0-.39a7.19,7.19,0,0,0-.33-2.92c.1-.21.25-.51.36-.72.46-.91.63-1.25.34-1.73a.94.94,0,0,0-.79-.44h0a1,1,0,0,0-.43.1,2.25,2.25,0,0,1-1,.32,3.48,3.48,0,0,1-.84-.14,10.92,10.92,0,0,0-1.26-.23,1.79,1.79,0,0,1,.71-.4,17.24,17.24,0,0,1,3.6-.36,5.41,5.41,0,0,1,2.35.36c2.48,1.49,2,4,2,5v2a.28.28,0,0,1,.17-.08c.15,0,.32.17.32,1.07,0,1.49-1,1.49-1,1.49,0,1.84-2,3-2,3v2.74c5.95.5,6.94,6.45,6.94,6.45Z"/><path class="cls-9" d="M434.6,229.15l-6-6a1.12,1.12,0,0,0-1.09-.31,1.15,1.15,0,0,0-.81.8l-2.26,8.18a1.13,1.13,0,0,0,.29,1.1,1.1,1.1,0,0,0,.8.34,1.35,1.35,0,0,0,.29,0l3.45-.9a22.12,22.12,0,0,1-12.37,20,21.73,21.73,0,0,1-9.54,2.24.46.46,0,1,0,0,.92h0a22.81,22.81,0,0,0,9.95-2.33A23.05,23.05,0,0,0,430.24,232l3.84-1a1.15,1.15,0,0,0,.81-.8A1.12,1.12,0,0,0,434.6,229.15Zm-.6.85a.21.21,0,0,1-.15.16l-3.66,1-.9.23-3.65.95a.23.23,0,0,1-.21-.06.21.21,0,0,1-.05-.21l2.25-8.17a.23.23,0,0,1,.16-.16h.06a.21.21,0,0,1,.15.06l5.95,6A.19.19,0,0,1,434,230Z"/><path class="cls-9" d="M389.57,220.08a.92.92,0,0,0,.29,0l8.21-2.13a1.14,1.14,0,0,0,.52-1.9l-2.49-2.53a22.1,22.1,0,0,1,23.5.71,21.81,21.81,0,0,1,6.71,7.14.46.46,0,1,0,.79-.46,22.73,22.73,0,0,0-7-7.45,23,23,0,0,0-24.68-.62L392.64,210a1.14,1.14,0,0,0-1.9.49l-2.26,8.18a1.12,1.12,0,0,0,.29,1.1A1.1,1.1,0,0,0,389.57,220.08Zm2.05-9.37a.2.2,0,0,1,.16-.15.22.22,0,0,1,.21.06l2.65,2.69.65.66,2.65,2.69a.2.2,0,0,1,.05.21.21.21,0,0,1-.15.15l-8.21,2.13a.2.2,0,0,1-.21-.06.2.2,0,0,1-.05-.21Z"/><path class="cls-9" d="M399.27,247.72a1.13,1.13,0,0,0-1.9.5l-.95,3.43a22.13,22.13,0,0,1-11.14-20.71,21.86,21.86,0,0,1,2.83-9.38.46.46,0,0,0-.17-.63.47.47,0,0,0-.63.17,23,23,0,0,0,8.85,31.47l-1.05,3.82a1.12,1.12,0,0,0,.29,1.1,1.07,1.07,0,0,0,.8.34,1.43,1.43,0,0,0,.29,0l8.21-2.14a1.13,1.13,0,0,0,.52-1.89Zm5.35,6.9a.19.19,0,0,1-.15.15l-8.21,2.14h0a.23.23,0,0,1-.21-.06.22.22,0,0,1-.05-.21l1-3.64.25-.9,1-3.64a.21.21,0,0,1,.16-.15h0a.23.23,0,0,1,.16.07l5.95,6A.21.21,0,0,1,404.62,254.62Z"/><path class="cls-8" d="M356.24,179.34h-3.41v-2.59a.47.47,0,0,0-.46-.46.46.46,0,0,0-.46.46v2.59h-5.15v-2.59a.46.46,0,0,0-.46-.46.47.47,0,0,0-.46.46v2.59H340.7v-2.59a.46.46,0,0,0-.92,0v2.59h-5.14v-2.59a.47.47,0,0,0-.46-.46.46.46,0,0,0-.46.46v2.59h-5.14v-2.59a.47.47,0,0,0-.46-.46.46.46,0,0,0-.46.46v2.59h-5.15v-2.59a.46.46,0,0,0-.46-.46.47.47,0,0,0-.46.46v2.59h-8.11V170.9h3.33a.46.46,0,0,0,0-.92h-3.33v-4.79h3.33a.46.46,0,0,0,0-.92h-3.33v-4.79h3.33a.46.46,0,0,0,0-.92h-3.33v-4.79h3.33a.46.46,0,0,0,0-.92h-3.33v-4.79h3.33a.46.46,0,0,0,0-.92h-3.33v-4.79h3.33a.46.46,0,0,0,.46-.46.47.47,0,0,0-.46-.46h-3.33v-4.84a.46.46,0,0,0-.92,0V179.8a.46.46,0,0,0,.46.46h43.22a.46.46,0,0,0,.46-.46A.47.47,0,0,0,356.24,179.34Z"/><path class="cls-8" d="M322.05,173.23h4a.47.47,0,0,0,.46-.46V144.86a.46.46,0,0,0-.46-.46h-4a.46.46,0,0,0-.46.46v27.91A.47.47,0,0,0,322.05,173.23Zm.46-27.91h3.08v27h-3.08Z"/><path class="cls-8" d="M330,173.23h4a.46.46,0,0,0,.46-.46V157a9.39,9.39,0,0,0,2.76,1.06v14.74a.47.47,0,0,0,.46.46h4a.47.47,0,0,0,.46-.46V157.71a9,9,0,0,0,2.45-1.29l.71.71v15.64a.47.47,0,0,0,.46.46h4a.47.47,0,0,0,.46-.46V162.05l3.9,3.9a1.35,1.35,0,0,0,1,.4,1.38,1.38,0,0,0,1-2.36l-5.85-5.84v-2.44a.47.47,0,0,0-.46-.46h-2.43l-.79-.78A9.23,9.23,0,1,0,331,153.35h-1a.46.46,0,0,0-.46.46v19A.47.47,0,0,0,330,173.23Zm11.22-.92h-3.08V158.18c.33,0,.65,0,1,0a9.35,9.35,0,0,0,2.11-.24Zm8.08,0h-3.08V158.05l3.08,3.08Zm0-16.14v1.06l-1.05-1.06Zm-2.35,0,2.35,2.36.92.92,5.2,5.2a.46.46,0,0,1,0,.65.48.48,0,0,1-.65,0l-4.55-4.55-.92-.92-3.08-3.08-.58-.58c.11-.1.23-.21.33-.32l.32-.33Zm-13.72-13.06a8.32,8.32,0,0,1,12.27,11.21c-.16.19-.32.38-.5.56s-.37.34-.56.5a8.13,8.13,0,0,1-2.3,1.35,7.6,7.6,0,0,1-.92.3,8.43,8.43,0,0,1-3.08.22c-.31,0-.61-.09-.92-.16a8.14,8.14,0,0,1-2.76-1.2,7.75,7.75,0,0,1-.92-.73l-.31-.28a7.76,7.76,0,0,1-.55-.61,11,11,0,0,1-.65-.92A8.34,8.34,0,0,1,333.26,143.11Zm-2.77,11.16h1.08a9.39,9.39,0,0,0,1,1.26,9.25,9.25,0,0,0,1,.82v16h-3.08Z"/><path class="cls-8" d="M335.51,149.67c1.15,1.15,2.47.48,3.68-.22l2.28,2.28a3.69,3.69,0,0,1-2.55.8l.12,1.06a4.25,4.25,0,0,0,3.13-1.16l.83.83.57-.57-.84-.84c1.35-1.55,1-3,.17-3.8-1.23-1.23-2.6-.56-3.84.13l-2-2a3.18,3.18,0,0,1,2.09-.67l-.11-1a3.93,3.93,0,0,0-2.69,1l-.87-.87-.58.57.86.85C334.68,147.19,334.54,148.69,335.51,149.67Zm6.66-.76a1.57,1.57,0,0,1-.14,2.24L339.91,149C340.75,148.58,341.53,148.27,342.17,148.91Zm-5.74-2.22,1.91,1.91c-.81.45-1.54.75-2.07.22A1.51,1.51,0,0,1,336.43,146.69Z"/><path class="cls-8" d="M333.81,154.33c.22.22.45.41.68.6a7.74,7.74,0,0,0,2.76,1.36,7.42,7.42,0,0,0,.92.17,6.33,6.33,0,0,0,1,.07,8,8,0,0,0,2.11-.29c.31-.1.62-.21.92-.34a7.69,7.69,0,0,0,2.31-1.57,7.54,7.54,0,1,0-11.49-1A7.47,7.47,0,0,0,333.81,154.33Zm.65-10a6.63,6.63,0,0,1,9.37,9.37,6.38,6.38,0,0,1-1.66,1.2,6,6,0,0,1-1,.41,6.86,6.86,0,0,1-3,.25,7.18,7.18,0,0,1-.92-.2,6.52,6.52,0,0,1-2.78-1.65h0c-.1-.1-.18-.2-.27-.3A6.63,6.63,0,0,1,334.46,144.31Z"/><path class="cls-1" d="M173.88,351.38h-13v4.8h13Zm-2.83,2.9h-7.46a.5.5,0,0,1-.5-.5.5.5,0,0,1,.5-.5h7.46a.5.5,0,0,1,.5.5A.5.5,0,0,1,171.05,354.28Z"/><path class="cls-1" d="M173.88,333.08h-13v4.8h13Zm-2.83,2.9h-7.46a.5.5,0,0,1-.5-.5.5.5,0,0,1,.5-.5h7.46a.5.5,0,0,1,.5.5A.5.5,0,0,1,171.05,336Z"/><path class="cls-1" d="M134.51,335.45a6.76,6.76,0,1,0,6.76-6.76A6.77,6.77,0,0,0,134.51,335.45ZM142,329.6v1.2a2.43,2.43,0,0,1,1.58,2.11.23.23,0,0,1-.23.25H142.2A.24.24,0,0,1,142,333a1,1,0,0,0-.19-.45.9.9,0,0,0-.6-.32H141a1,1,0,0,0-.69.28.75.75,0,0,0-.24.56c0,.48.45.72,1.28,1h0c1.68.56,2.54,1.5,2.54,2.78a2.47,2.47,0,0,1-.77,1.85,2.56,2.56,0,0,1-1.14.6v1.13a.21.21,0,0,1-.22.21h-1.12a.21.21,0,0,1-.22-.21v-1.16a2.57,2.57,0,0,1-1.9-2.36.24.24,0,0,1,.24-.25h1.09a.23.23,0,0,1,.23.2s0,.07,0,.1a.9.9,0,0,0,.46.66l0,0a1.17,1.17,0,0,0,.67.18,1,1,0,0,0,1.08-1c0-.73-.92-1.13-1.47-1.3h0c-.81-.27-2.34-.78-2.34-2.48a2.43,2.43,0,0,1,1.91-2.33v-1.1a.21.21,0,0,1,.22-.21h1.12A.21.21,0,0,1,142,329.6Z"/><path class="cls-1" d="M173.88,342.23h-13V347h13Zm-2.83,2.9h-7.46a.5.5,0,0,1,0-1h7.46a.5.5,0,1,1,0,1Z"/><path class="cls-1" d="M173.88,323.93h-13v4.8h13Zm-2.83,3h-7.46a.5.5,0,0,1-.5-.5.5.5,0,0,1,.5-.5h7.46a.5.5,0,0,1,.5.5A.5.5,0,0,1,171.05,326.9Z"/><path class="cls-1" d="M173.88,314.78h-13v4.79h13Zm-2.83,2.89h-7.46a.5.5,0,0,1-.5-.5.5.5,0,0,1,.5-.5h7.46a.5.5,0,0,1,.5.5A.5.5,0,0,1,171.05,317.67Z"/><path class="cls-10" d="M140.41,329.6v1.1A2.43,2.43,0,0,0,138.5,333c0,1.7,1.53,2.21,2.34,2.48h0c.55.17,1.47.57,1.47,1.3a1,1,0,0,1-1.08,1,1.17,1.17,0,0,1-.67-.18l0,0a.9.9,0,0,1-.46-.66s0-.06,0-.1a.23.23,0,0,0-.23-.2h-1.09a.24.24,0,0,0-.24.25,2.57,2.57,0,0,0,1.9,2.36v1.16a.21.21,0,0,0,.22.21h1.12a.21.21,0,0,0,.22-.21v-1.13a2.56,2.56,0,0,0,1.14-.6,2.47,2.47,0,0,0,.77-1.85c0-1.28-.86-2.22-2.54-2.78h0c-.83-.28-1.28-.52-1.28-1a.75.75,0,0,1,.24-.56,1,1,0,0,1,.69-.28h.2a.9.9,0,0,1,.6.32,1,1,0,0,1,.19.45.24.24,0,0,0,.23.19h1.12a.23.23,0,0,0,.23-.25A2.43,2.43,0,0,0,142,330.8v-1.2a.21.21,0,0,0-.22-.21h-1.12A.21.21,0,0,0,140.41,329.6Z"/><path class="cls-10" d="M140.84,345.18v8.6a.5.5,0,0,0,.5.5h18.51v2.4a.5.5,0,0,0,.5.5h14a.5.5,0,0,0,.5-.5v-5.8a.51.51,0,0,0-.5-.5h-14a.51.51,0,0,0-.5.5v2.4h-18v-8.11a5.3,5.3,0,0,1-.57,0Zm20,6.2h13v4.8h-13Z"/><path class="cls-10" d="M160.35,320.57h14a.5.5,0,0,0,.5-.5v-5.79a.5.5,0,0,0-.5-.5h-14a.5.5,0,0,0-.5.5v2.33H141.34a.5.5,0,0,0-.5.5v8.6l.43,0,.57,0v-8.1h18v2.46A.5.5,0,0,0,160.35,320.57Zm.5-5.79h13v4.79h-13Z"/><path class="cls-10" d="M151,336h8.84v2.4a.51.51,0,0,0,.5.5h14a.51.51,0,0,0,.5-.5v-5.8a.5.5,0,0,0-.5-.5h-14a.5.5,0,0,0-.5.5V335H151c0,.15,0,.31,0,.47S151,335.8,151,336Zm9.84-2.9h13v4.8h-13Z"/><path class="cls-10" d="M149.28,326.9h10.57v2.33a.51.51,0,0,0,.5.5h14a.51.51,0,0,0,.5-.5v-5.8a.5.5,0,0,0-.5-.5h-14a.5.5,0,0,0-.5.5v2.47H149a.5.5,0,0,0-.46.29l-.85,1.88a8.85,8.85,0,0,1,.76.74Zm11.57-3h13v4.8h-13Z"/><path class="cls-10" d="M148.5,344.83a.51.51,0,0,0,.46.3h10.89v2.4a.5.5,0,0,0,.5.5h14a.5.5,0,0,0,.5-.5v-5.8a.51.51,0,0,0-.5-.5h-14a.51.51,0,0,0-.5.5v2.4H149.28l-.9-2a9,9,0,0,1-.77.74Zm12.35-2.6h13V347h-13Z"/><path class="cls-10" d="M132.51,335.45a8.76,8.76,0,1,0,8.76-8.76A8.76,8.76,0,0,0,132.51,335.45Zm16.52,0a7.76,7.76,0,1,1-7.76-7.76A7.77,7.77,0,0,1,149,335.45Z"/><path class="cls-13" d="M140.84,325.71a9.74,9.74,0,0,0,0,19.47l.43,0a5.3,5.3,0,0,0,.57,0,9.62,9.62,0,0,0,5.77-2.32,9,9,0,0,0,.77-.74A9.67,9.67,0,0,0,151,336c0-.18,0-.35,0-.53s0-.32,0-.47a9.71,9.71,0,0,0-2.6-6.17,8.85,8.85,0,0,0-.76-.74,9.75,9.75,0,0,0-5.81-2.36l-.57,0Zm9.19,9.74a8.76,8.76,0,1,1-8.76-8.76A8.76,8.76,0,0,1,150,335.45Z"/><path class="cls-13" d="M133.51,335.45a7.76,7.76,0,1,0,7.76-7.76A7.77,7.77,0,0,0,133.51,335.45Zm14.52,0a6.76,6.76,0,1,1-6.76-6.76A6.76,6.76,0,0,1,148,335.45Z"/><path class="cls-10" d="M171.05,316.67h-7.46a.5.5,0,0,0-.5.5.5.5,0,0,0,.5.5h7.46a.5.5,0,0,0,.5-.5A.5.5,0,0,0,171.05,316.67Z"/><path class="cls-10" d="M171.05,325.9h-7.46a.5.5,0,0,0-.5.5.5.5,0,0,0,.5.5h7.46a.5.5,0,0,0,.5-.5A.5.5,0,0,0,171.05,325.9Z"/><path class="cls-10" d="M171.05,335h-7.46a.5.5,0,0,0-.5.5.5.5,0,0,0,.5.5h7.46a.5.5,0,0,0,.5-.5A.5.5,0,0,0,171.05,335Z"/><path class="cls-10" d="M171.05,344.13h-7.46a.5.5,0,0,0,0,1h7.46a.5.5,0,1,0,0-1Z"/><path class="cls-10" d="M171.05,353.28h-7.46a.5.5,0,0,0-.5.5.5.5,0,0,0,.5.5h7.46a.5.5,0,0,0,.5-.5A.5.5,0,0,0,171.05,353.28Z"/><g class="cls-14"><path class="cls-13" d="M368.74,374.71a47.78,47.78,0,0,0-52.07-10.35h0a47.77,47.77,0,0,0-29.49,44.14v18.36q7.13-.19,14.06-1.09a38,38,0,0,0,69.86-29q5.53-4.29,10.62-9.09Z"/></g><g class="cls-14"><path class="cls-13" d="M249.43,364.36h0a47.76,47.76,0,0,0-52.06,10.35l-13,13c3.38,3.2,6.93,6.23,10.61,9.09a38,38,0,0,0,69.86,29q6.94.89,14.07,1.09V408.5A47.76,47.76,0,0,0,249.43,364.36Z"/></g><g class="cls-14"><path class="cls-13" d="M316.67,202h0a47.78,47.78,0,0,0,52.07-10.35l13-13q-5.09-4.8-10.62-9.08a38,38,0,0,0-69.86-29q-6.93-.88-14.06-1.09V157.9A47.76,47.76,0,0,0,316.67,202Z"/></g><g class="cls-14"><path class="cls-13" d="M374.57,197.51a47.8,47.8,0,0,0-10.36,52.07h0a47.79,47.79,0,0,0,44.14,29.49h18.37q-.2-6.68-1-13.18a38,38,0,0,0-28.49-70,144.65,144.65,0,0,0-9.69-11.4Z"/></g><g class="cls-14"><path class="cls-13" d="M201.89,316.82h0a47.77,47.77,0,0,0-44.14-29.49H139.39q.2,6.87,1,13.55a38,38,0,0,0,28.92,70.21c2.9,3.74,6,7.35,9.22,10.78l13-13A47.76,47.76,0,0,0,201.89,316.82Z"/></g><g class="cls-14"><path class="cls-13" d="M425.59,301.71q.92-7.09,1.13-14.39H408.35a47.76,47.76,0,0,0-44.13,29.49h0a47.76,47.76,0,0,0,10.35,52.06l13,13q4.67-4.94,8.86-10.33a38,38,0,0,0,29.17-69.82Z"/></g><g class="cls-14"><path class="cls-13" d="M231.66,120.78a38,38,0,0,0-36.5,48.71q-5.61,4.33-10.77,9.2l13,13A47.77,47.77,0,0,0,249.44,202h0a47.76,47.76,0,0,0,29.49-44.13V139.53q-7,.19-13.89,1.06A38,38,0,0,0,231.66,120.78Z"/></g><g class="cls-14"><path class="cls-13" d="M140.27,266.75c-.46,4.06-.77,8.17-.88,12.32h18.36a47.77,47.77,0,0,0,44.14-29.49h0a47.78,47.78,0,0,0-10.35-52.07l-13-13a146.55,146.55,0,0,0-10,11.81,38,38,0,0,0-28.27,70.41Z"/></g></g><path class="cls-4" d="M132.72,537.94h6.69c2.42,0,3.66,1.54,3.66,3.24a2.83,2.83,0,0,1-2.19,2.92,3.07,3.07,0,0,1,2.44,3.12,3.35,3.35,0,0,1-3.7,3.43h-6.9Zm6.1,5.11a1.4,1.4,0,1,0,0-2.8h-3.39v2.8Zm.1,5.3a1.47,1.47,0,0,0,1.64-1.51,1.49,1.49,0,0,0-1.64-1.49h-3.49v3Z"/><path class="cls-4" d="M151.51,549.49a4.32,4.32,0,0,1-3.24,1.39,2.64,2.64,0,0,1-3-2.9v-6.53h2.42V547a1.48,1.48,0,0,0,1.69,1.7,2.72,2.72,0,0,0,2.1-1.05v-6.23h2.42v9.2h-2.42Z"/><path class="cls-4" d="M156.58,547.75a5.22,5.22,0,0,0,3.18,1.26c1.05,0,1.54-.36,1.54-.93s-.8-.88-1.85-1.09c-1.58-.3-3.62-.68-3.62-2.88,0-1.54,1.36-2.89,3.78-2.89a5.82,5.82,0,0,1,3.71,1.26l-1,1.65a3.87,3.87,0,0,0-2.72-1.06c-.88,0-1.45.32-1.45.85s.72.79,1.75,1c1.58.3,3.7.72,3.7,3,0,1.67-1.43,3-4,3a6.16,6.16,0,0,1-4.11-1.43Z"/><path class="cls-4" d="M165.17,538.64a1.46,1.46,0,0,1,1.45-1.44,1.45,1.45,0,0,1,0,2.89A1.46,1.46,0,0,1,165.17,538.64Zm.25,2.81h2.42v9.2h-2.42Z"/><path class="cls-4" d="M176.45,545.09a1.5,1.5,0,0,0-1.7-1.72,2.6,2.6,0,0,0-2.09,1.09v6.19h-2.43v-9.2h2.43v1.2a4.19,4.19,0,0,1,3.22-1.43,2.67,2.67,0,0,1,3,2.93v6.5h-2.42Z"/><path class="cls-4" d="M185.44,541.22c2.75,0,4.61,2.06,4.61,5.07v.53h-6.84a2.49,2.49,0,0,0,2.65,2.14,3.78,3.78,0,0,0,2.46-.92l1.07,1.56a5.76,5.76,0,0,1-3.8,1.28,4.83,4.83,0,1,1-.15-9.66Zm-2.27,4h4.54a2.14,2.14,0,0,0-2.27-2A2.23,2.23,0,0,0,183.17,545.18Z"/><path class="cls-4" d="M192.05,547.75a5.27,5.27,0,0,0,3.18,1.26c1.05,0,1.55-.36,1.55-.93s-.8-.88-1.85-1.09c-1.58-.3-3.62-.68-3.62-2.88,0-1.54,1.35-2.89,3.77-2.89a5.88,5.88,0,0,1,3.72,1.26l-1,1.65a3.87,3.87,0,0,0-2.72-1.06c-.88,0-1.45.32-1.45.85s.72.79,1.75,1c1.59.3,3.7.72,3.7,3,0,1.67-1.43,3-4,3a6.18,6.18,0,0,1-4.12-1.43Z"/><path class="cls-4" d="M201.14,547.75a5.25,5.25,0,0,0,3.18,1.26c1.05,0,1.54-.36,1.54-.93s-.8-.88-1.85-1.09c-1.58-.3-3.62-.68-3.62-2.88,0-1.54,1.36-2.89,3.78-2.89a5.82,5.82,0,0,1,3.71,1.26l-1,1.65a3.87,3.87,0,0,0-2.72-1.06c-.88,0-1.45.32-1.45.85s.72.79,1.75,1c1.58.3,3.7.72,3.7,3,0,1.67-1.43,3-4,3a6.16,6.16,0,0,1-4.11-1.43Z"/><path class="cls-4" d="M214.91,537.94h2.71v12.71h-2.71Z"/><path class="cls-4" d="M226.29,545.09a1.5,1.5,0,0,0-1.7-1.72,2.62,2.62,0,0,0-2.1,1.09v6.19h-2.42v-9.2h2.42v1.2a4.21,4.21,0,0,1,3.22-1.43,2.68,2.68,0,0,1,3,2.93v6.5h-2.42Z"/><path class="cls-4" d="M231.58,548.36v-4.8h-1.52v-2.11h1.52v-2.52H234v2.52h1.87v2.11H234v4.16c0,.57.3,1,.84,1a1.37,1.37,0,0,0,.84-.27l.51,1.83a3,3,0,0,1-2,.59A2.3,2.3,0,0,1,231.58,548.36Z"/><path class="cls-4" d="M241.72,541.22c2.74,0,4.61,2.06,4.61,5.07v.53h-6.84a2.48,2.48,0,0,0,2.65,2.14,3.77,3.77,0,0,0,2.45-.92l1.07,1.56a5.71,5.71,0,0,1-3.79,1.28,4.83,4.83,0,1,1-.15-9.66Zm-2.27,4H244a2.12,2.12,0,0,0-2.26-2A2.21,2.21,0,0,0,239.45,545.18Z"/><path class="cls-4" d="M248.08,537.94h2.42v12.71h-2.42Z"/><path class="cls-4" d="M252.9,537.94h2.42v12.71H252.9Z"/><path class="cls-4" d="M257.47,538.64a1.45,1.45,0,1,1,1.45,1.45A1.46,1.46,0,0,1,257.47,538.64Zm.25,2.81h2.42v9.2h-2.42Z"/><path class="cls-4" d="M263.43,551.26a3.67,3.67,0,0,0,2.88,1.14,2.25,2.25,0,0,0,2.54-2.32v-.93a3.61,3.61,0,0,1-2.84,1.44c-2.31,0-4.06-1.62-4.06-4.68s1.73-4.69,4.06-4.69a3.54,3.54,0,0,1,2.84,1.41v-1.18h2.43V550c0,3.51-2.7,4.37-5,4.37a5.57,5.57,0,0,1-4-1.38Zm5.42-6.84a2.65,2.65,0,0,0-2.08-1,2.54,2.54,0,0,0,0,5.07,2.71,2.71,0,0,0,2.08-1.05Z"/><path class="cls-4" d="M277.85,541.22c2.75,0,4.62,2.06,4.62,5.07v.53h-6.84a2.48,2.48,0,0,0,2.64,2.14,3.78,3.78,0,0,0,2.46-.92l1.07,1.56a5.71,5.71,0,0,1-3.79,1.28,4.83,4.83,0,1,1-.16-9.66Zm-2.26,4h4.53a2.12,2.12,0,0,0-2.27-2A2.21,2.21,0,0,0,275.59,545.18Z"/><path class="cls-4" d="M290.43,545.09a1.5,1.5,0,0,0-1.7-1.72,2.6,2.6,0,0,0-2.09,1.09v6.19h-2.42v-9.2h2.42v1.2a4.19,4.19,0,0,1,3.22-1.43,2.67,2.67,0,0,1,3,2.93v6.5h-2.42Z"/><path class="cls-4" d="M299.54,541.22a4.29,4.29,0,0,1,3.64,1.66l-1.59,1.48a2.21,2.21,0,0,0-1.94-1,2.69,2.69,0,0,0,0,5.36,2.3,2.3,0,0,0,1.94-1l1.59,1.46a4.25,4.25,0,0,1-3.64,1.68,4.83,4.83,0,1,1,0-9.66Z"/><path class="cls-4" d="M308.93,541.22c2.74,0,4.61,2.06,4.61,5.07v.53H306.7a2.48,2.48,0,0,0,2.65,2.14,3.82,3.82,0,0,0,2.46-.92l1.06,1.56a5.71,5.71,0,0,1-3.79,1.28,4.83,4.83,0,1,1-.15-9.66Zm-2.27,4h4.54a2.14,2.14,0,0,0-2.27-2A2.21,2.21,0,0,0,306.66,545.18Z"/><path class="cls-4" d="M325.69,549.7a3.81,3.81,0,0,1-2.91,1.18,3.06,3.06,0,0,1-3.2-3,2.91,2.91,0,0,1,3.2-2.93,3.72,3.72,0,0,1,2.91,1.12v-1.28c0-.93-.8-1.54-2-1.54a3.83,3.83,0,0,0-2.68,1.09l-.92-1.62a6,6,0,0,1,4-1.45c2.1,0,4,.84,4,3.49v5.94h-2.42Zm0-2.4a2.39,2.39,0,0,0-1.94-.8c-.95,0-1.73.49-1.73,1.39s.78,1.35,1.73,1.35a2.43,2.43,0,0,0,1.94-.8Z"/><path class="cls-4" d="M336.73,545.09a1.5,1.5,0,0,0-1.7-1.72,2.62,2.62,0,0,0-2.1,1.09v6.19h-2.42v-9.2h2.42v1.2a4.21,4.21,0,0,1,3.22-1.43,2.68,2.68,0,0,1,3,2.93v6.5h-2.42Z"/><path class="cls-4" d="M347.87,549.47a3.58,3.58,0,0,1-2.84,1.41c-2.33,0-4.08-1.75-4.08-4.82s1.74-4.84,4.08-4.84a3.52,3.52,0,0,1,2.84,1.41v-4.69h2.44v12.71h-2.44Zm0-5.05a2.64,2.64,0,0,0-2.1-1,2.71,2.71,0,0,0,0,5.36,2.64,2.64,0,0,0,2.1-1.05Z"/><path class="cls-4" d="M365.74,548.46h-5.68l-.8,2.19h-3l4.91-12.71h3.4l4.89,12.71h-2.95Zm-5-2.34H365l-2.1-5.84Z"/><path class="cls-4" d="M376.83,545.09a1.5,1.5,0,0,0-1.7-1.72,2.63,2.63,0,0,0-2.1,1.09v6.19h-2.42v-9.2H373v1.2a4.23,4.23,0,0,1,3.23-1.43,2.67,2.67,0,0,1,3,2.93v6.5h-2.42Z"/><path class="cls-4" d="M387.17,549.7a3.81,3.81,0,0,1-2.91,1.18,3.07,3.07,0,0,1-3.21-3,2.92,2.92,0,0,1,3.21-2.93,3.72,3.72,0,0,1,2.91,1.12v-1.28c0-.93-.8-1.54-2-1.54a3.87,3.87,0,0,0-2.69,1.09l-.91-1.62a6,6,0,0,1,4-1.45c2.1,0,4,.84,4,3.49v5.94h-2.42Zm0-2.4a2.39,2.39,0,0,0-1.94-.8c-1,0-1.74.49-1.74,1.39s.78,1.35,1.74,1.35a2.43,2.43,0,0,0,1.94-.8Z"/><path class="cls-4" d="M392,537.94h2.42v12.71H392Z"/><path class="cls-4" d="M397.61,552.23a1.23,1.23,0,0,0,1.28-.66l.34-.78-3.74-9.34h2.6l2.4,6.4,2.4-6.4h2.61l-4.33,10.71a3.34,3.34,0,0,1-3.48,2.23,6.23,6.23,0,0,1-1.2-.14l.36-2.17A2,2,0,0,0,397.61,552.23Z"/><path class="cls-4" d="M407.06,548.36v-4.8h-1.53v-2.11h1.53v-2.52h2.44v2.52h1.87v2.11H409.5v4.16c0,.57.3,1,.84,1a1.37,1.37,0,0,0,.84-.27l.51,1.83a3,3,0,0,1-2,.59A2.3,2.3,0,0,1,407.06,548.36Z"/><path class="cls-4" d="M412.77,538.64a1.45,1.45,0,1,1,1.45,1.45A1.46,1.46,0,0,1,412.77,538.64Zm.25,2.81h2.42v9.2H413Z"/><path class="cls-4" d="M422.13,541.22a4.28,4.28,0,0,1,3.64,1.66l-1.58,1.48a2.24,2.24,0,0,0-1.95-1,2.69,2.69,0,0,0,0,5.36,2.33,2.33,0,0,0,1.95-1l1.58,1.46a4.23,4.23,0,0,1-3.64,1.68,4.83,4.83,0,1,1,0-9.66Z"/><path class="cls-4" d="M427.6,547.75a5.22,5.22,0,0,0,3.18,1.26c1.05,0,1.54-.36,1.54-.93s-.8-.88-1.85-1.09c-1.58-.3-3.62-.68-3.62-2.88,0-1.54,1.36-2.89,3.78-2.89a5.82,5.82,0,0,1,3.71,1.26l-1,1.65a3.87,3.87,0,0,0-2.72-1.06c-.88,0-1.45.32-1.45.85s.72.79,1.75,1c1.58.3,3.7.72,3.7,3,0,1.67-1.43,3-4,3a6.16,6.16,0,0,1-4.11-1.43Z"/><path class="cls-4" d="M162.37,560.59a6,6,0,0,1,5.26,2.78l-2.25,1.22a3.62,3.62,0,0,0-3-1.6,4.18,4.18,0,0,0,0,8.35,4.31,4.31,0,0,0,2.74-1v-1.55h-3.39V566.5h6.06v4.86a7,7,0,0,1-5.41,2.4,6.59,6.59,0,1,1,0-13.17Z"/><path class="cls-4" d="M169.87,560.8h2.42v12.71h-2.42Z"/><path class="cls-4" d="M174.1,568.9a4.87,4.87,0,1,1,4.86,4.84A4.66,4.66,0,0,1,174.1,568.9Zm7.22,0a2.37,2.37,0,1,0-2.36,2.69A2.43,2.43,0,0,0,181.32,568.9Z"/><path class="cls-4" d="M185.63,560.8h2.42v4.69a3.55,3.55,0,0,1,2.84-1.41c2.34,0,4.08,1.83,4.08,4.84s-1.76,4.82-4.08,4.82a3.55,3.55,0,0,1-2.84-1.41v1.18h-2.42Zm4.5,10.79a2.7,2.7,0,0,0,0-5.36,2.66,2.66,0,0,0-2.08,1.07v3.26A2.69,2.69,0,0,0,190.13,571.59Z"/><path class="cls-4" d="M202.32,572.56a3.83,3.83,0,0,1-2.92,1.18,3.07,3.07,0,0,1-3.2-3,2.92,2.92,0,0,1,3.2-2.93,3.74,3.74,0,0,1,2.92,1.12V567.6c0-.93-.8-1.54-2-1.54a3.86,3.86,0,0,0-2.69,1.09l-.91-1.62a6,6,0,0,1,4-1.45c2.09,0,4,.84,4,3.49v5.94h-2.42Zm0-2.4a2.43,2.43,0,0,0-1.95-.8c-1,0-1.73.49-1.73,1.39s.78,1.35,1.73,1.35a2.4,2.4,0,0,0,1.95-.8Z"/><path class="cls-4" d="M207.14,560.8h2.42v12.71h-2.42Z"/><path class="cls-4" d="M216.89,560.8h6.69c2.42,0,3.66,1.54,3.66,3.24a2.83,2.83,0,0,1-2.19,2.92,3.08,3.08,0,0,1,2.44,3.12,3.35,3.35,0,0,1-3.7,3.43h-6.9Zm6.1,5.11a1.4,1.4,0,1,0,0-2.8H219.6v2.8Zm.1,5.3a1.46,1.46,0,0,0,1.63-1.51,1.48,1.48,0,0,0-1.63-1.49H219.6v3Z"/><path class="cls-4" d="M235.68,572.35a4.3,4.3,0,0,1-3.24,1.39,2.64,2.64,0,0,1-3-2.9v-6.53h2.43v5.58c0,1.28.66,1.7,1.69,1.7a2.72,2.72,0,0,0,2.1-1.05v-6.23h2.42v9.2h-2.42Z"/><path class="cls-4" d="M240.74,570.62a5.27,5.27,0,0,0,3.19,1.25c1,0,1.54-.36,1.54-.93s-.8-.88-1.85-1.09c-1.58-.3-3.62-.68-3.62-2.87,0-1.55,1.35-2.9,3.77-2.9a5.85,5.85,0,0,1,3.72,1.26l-1,1.66a3.86,3.86,0,0,0-2.73-1.07c-.87,0-1.45.32-1.45.86s.73.78,1.76,1c1.58.3,3.69.72,3.69,3,0,1.67-1.43,3-4,3a6.2,6.2,0,0,1-4.12-1.43Z"/><path class="cls-4" d="M249.33,561.51a1.45,1.45,0,1,1,2.9,0,1.45,1.45,0,0,1-2.9,0Zm.25,2.8H252v9.2h-2.42Z"/><path class="cls-4" d="M260.62,568a1.5,1.5,0,0,0-1.7-1.72,2.64,2.64,0,0,0-2.1,1.09v6.19H254.4v-9.2h2.42v1.2a4.21,4.21,0,0,1,3.22-1.43,2.68,2.68,0,0,1,3,2.93v6.5h-2.42Z"/><path class="cls-4" d="M269.61,564.08c2.74,0,4.61,2.06,4.61,5.07v.53h-6.84a2.48,2.48,0,0,0,2.65,2.14,3.77,3.77,0,0,0,2.45-.92l1.07,1.56a5.71,5.71,0,0,1-3.79,1.28,4.83,4.83,0,1,1-.15-9.66Zm-2.27,4h4.53a2.12,2.12,0,0,0-2.26-2A2.21,2.21,0,0,0,267.34,568Z"/><path class="cls-4" d="M276.22,570.62a5.21,5.21,0,0,0,3.18,1.25c1.05,0,1.54-.36,1.54-.93s-.8-.88-1.85-1.09c-1.58-.3-3.62-.68-3.62-2.87,0-1.55,1.36-2.9,3.78-2.9a5.82,5.82,0,0,1,3.71,1.26L282,567a3.83,3.83,0,0,0-2.72-1.07c-.88,0-1.45.32-1.45.86s.72.78,1.75,1c1.58.3,3.7.72,3.7,3,0,1.67-1.43,3-4,3a6.16,6.16,0,0,1-4.11-1.43Z"/><path class="cls-4" d="M285.3,570.62a5.27,5.27,0,0,0,3.19,1.25c1,0,1.54-.36,1.54-.93s-.8-.88-1.85-1.09c-1.58-.3-3.62-.68-3.62-2.87,0-1.55,1.35-2.9,3.77-2.9a5.83,5.83,0,0,1,3.72,1.26l-1,1.66a3.86,3.86,0,0,0-2.73-1.07c-.87,0-1.45.32-1.45.86s.73.78,1.76,1c1.58.3,3.69.72,3.69,3,0,1.67-1.42,3-4,3a6.16,6.16,0,0,1-4.11-1.43Z"/><path class="cls-4" d="M310.13,564.36l-3.58,9.15h-1.18l-3.59-9.15v9.15h-2.7V560.8h3.79l3.09,7.93L309,560.8h3.82v12.71h-2.73Z"/><path class="cls-4" d="M320.84,572.56a3.83,3.83,0,0,1-2.92,1.18,3.06,3.06,0,0,1-3.2-3,2.91,2.91,0,0,1,3.2-2.93,3.74,3.74,0,0,1,2.92,1.12V567.6c0-.93-.81-1.54-2-1.54a3.83,3.83,0,0,0-2.68,1.09l-.92-1.62a6.07,6.07,0,0,1,4-1.45c2.1,0,4,.84,4,3.49v5.94h-2.42Zm0-2.4a2.45,2.45,0,0,0-1.95-.8c-.95,0-1.73.49-1.73,1.39s.78,1.35,1.73,1.35a2.42,2.42,0,0,0,1.95-.8Z"/><path class="cls-4" d="M331.87,568a1.5,1.5,0,0,0-1.7-1.72,2.64,2.64,0,0,0-2.1,1.09v6.19h-2.42v-9.2h2.42v1.2a4.21,4.21,0,0,1,3.22-1.43,2.68,2.68,0,0,1,3,2.93v6.5h-2.42Z"/><path class="cls-4" d="M342.21,572.56a3.82,3.82,0,0,1-2.92,1.18,3.07,3.07,0,0,1-3.2-3,2.92,2.92,0,0,1,3.2-2.93,3.74,3.74,0,0,1,2.92,1.12V567.6c0-.93-.8-1.54-2-1.54a3.86,3.86,0,0,0-2.69,1.09l-.91-1.62a6,6,0,0,1,4-1.45c2.1,0,4,.84,4,3.49v5.94h-2.42Zm0-2.4a2.43,2.43,0,0,0-1.94-.8c-1,0-1.74.49-1.74,1.39s.78,1.35,1.74,1.35a2.39,2.39,0,0,0,1.94-.8Z"/><path class="cls-4" d="M347.92,574.12a3.68,3.68,0,0,0,2.88,1.15,2.26,2.26,0,0,0,2.54-2.33V572a3.62,3.62,0,0,1-2.84,1.45c-2.31,0-4.06-1.62-4.06-4.69s1.73-4.69,4.06-4.69a3.57,3.57,0,0,1,2.84,1.41v-1.18h2.44v8.57c0,3.51-2.71,4.37-5,4.37a5.56,5.56,0,0,1-4-1.37Zm5.42-6.84a2.63,2.63,0,0,0-2.08-1,2.54,2.54,0,0,0,0,5.07,2.69,2.69,0,0,0,2.08-1Z"/><path class="cls-4" d="M362.35,564.08c2.74,0,4.61,2.06,4.61,5.07v.53h-6.84a2.48,2.48,0,0,0,2.65,2.14,3.82,3.82,0,0,0,2.46-.92l1.06,1.56a5.71,5.71,0,0,1-3.79,1.28,4.83,4.83,0,1,1-.15-9.66Zm-2.27,4h4.54a2.14,2.14,0,0,0-2.27-2A2.21,2.21,0,0,0,360.08,568Z"/><path class="cls-4" d="M380.12,567.7c0-.86-.38-1.47-1.37-1.47a2.43,2.43,0,0,0-1.9,1.07v6.21h-2.44V567.7c0-.86-.38-1.47-1.37-1.47a2.46,2.46,0,0,0-1.91,1.09v6.19h-2.42v-9.2h2.42v1.2a4,4,0,0,1,3-1.43,2.43,2.43,0,0,1,2.55,1.68,3.93,3.93,0,0,1,3.17-1.68,2.45,2.45,0,0,1,2.7,2.78v6.65h-2.44Z"/><path class="cls-4" d="M389.11,564.08c2.75,0,4.62,2.06,4.62,5.07v.53h-6.85a2.49,2.49,0,0,0,2.65,2.14,3.78,3.78,0,0,0,2.46-.92l1.07,1.56a5.73,5.73,0,0,1-3.79,1.28,4.83,4.83,0,1,1-.16-9.66Zm-2.26,4h4.53a2.13,2.13,0,0,0-2.27-2A2.21,2.21,0,0,0,386.85,568Z"/><path class="cls-4" d="M401.69,568a1.5,1.5,0,0,0-1.7-1.72,2.62,2.62,0,0,0-2.09,1.09v6.19h-2.42v-9.2h2.42v1.2a4.19,4.19,0,0,1,3.22-1.43,2.67,2.67,0,0,1,3,2.93v6.5h-2.42Z"/><path class="cls-4" d="M407,571.23v-4.81h-1.52v-2.11H407v-2.52h2.44v2.52h1.87v2.11h-1.87v4.16c0,.57.31,1,.84,1a1.34,1.34,0,0,0,.84-.27l.51,1.83a3,3,0,0,1-2,.59A2.3,2.3,0,0,1,407,571.23Z"/><path class="cls-4" d="M196.87,583.45a6,6,0,0,1,5.26,2.79l-2.25,1.22a3.59,3.59,0,0,0-3-1.61,4.18,4.18,0,0,0,0,8.35,4.36,4.36,0,0,0,2.75-1v-1.54h-3.4v-2.33h6.06v4.86a7,7,0,0,1-5.41,2.4,6.59,6.59,0,1,1,0-13.17Z"/><path class="cls-4" d="M203.78,591.76a4.87,4.87,0,1,1,4.86,4.84A4.66,4.66,0,0,1,203.78,591.76Zm7.23,0a2.38,2.38,0,1,0-2.37,2.69A2.43,2.43,0,0,0,211,591.76Z"/><path class="cls-4" d="M214,587.17h2.59l2.4,6.4,2.4-6.4H224l-3.7,9.2h-2.61Z"/><path class="cls-4" d="M229.26,586.94c2.74,0,4.61,2.06,4.61,5.07v.53H227a2.47,2.47,0,0,0,2.65,2.14,3.72,3.72,0,0,0,2.45-.92l1.07,1.57a5.76,5.76,0,0,1-3.79,1.27,4.83,4.83,0,1,1-.15-9.66Zm-2.27,4h4.53a2.12,2.12,0,0,0-2.26-2A2.2,2.2,0,0,0,227,590.9Z"/><path class="cls-4" d="M235.62,587.17H238v1.26A3.94,3.94,0,0,1,241,587v2.36a3,3,0,0,0-.66-.07,3.08,3.08,0,0,0-2.27,1v6.08h-2.42Z"/><path class="cls-4" d="M248.69,590.81a1.5,1.5,0,0,0-1.7-1.72,2.62,2.62,0,0,0-2.09,1.09v6.19h-2.42v-9.2h2.42v1.2a4.19,4.19,0,0,1,3.22-1.43,2.68,2.68,0,0,1,3,2.94v6.49h-2.42Z"/><path class="cls-4" d="M259,595.42a3.81,3.81,0,0,1-2.91,1.18,3.06,3.06,0,0,1-3.2-3.05,2.91,2.91,0,0,1,3.2-2.93,3.72,3.72,0,0,1,2.91,1.12v-1.27c0-.94-.8-1.55-2-1.55a3.83,3.83,0,0,0-2.68,1.09l-.92-1.62a6,6,0,0,1,4-1.45c2.1,0,4,.84,4,3.49v5.94H259Zm0-2.4a2.43,2.43,0,0,0-1.94-.8c-.95,0-1.73.49-1.73,1.39s.78,1.35,1.73,1.35a2.39,2.39,0,0,0,1.94-.8Z"/><path class="cls-4" d="M270.06,590.81c0-1.28-.66-1.72-1.69-1.72a2.64,2.64,0,0,0-2.1,1.09v6.19h-2.42v-9.2h2.42v1.2a4.21,4.21,0,0,1,3.22-1.43,2.68,2.68,0,0,1,3,2.94v6.49h-2.42Z"/><path class="cls-4" d="M279.17,586.94a4.28,4.28,0,0,1,3.64,1.66l-1.58,1.49a2.24,2.24,0,0,0-1.94-1,2.69,2.69,0,0,0,0,5.36,2.33,2.33,0,0,0,1.94-1l1.58,1.47a4.25,4.25,0,0,1-3.64,1.67,4.83,4.83,0,1,1,0-9.66Z"/><path class="cls-4" d="M288.56,586.94c2.75,0,4.61,2.06,4.61,5.07v.53h-6.84a2.48,2.48,0,0,0,2.65,2.14,3.72,3.72,0,0,0,2.46-.92l1.07,1.57a5.8,5.8,0,0,1-3.79,1.27,4.83,4.83,0,1,1-.16-9.66Zm-2.27,4h4.54a2.13,2.13,0,0,0-2.27-2A2.22,2.22,0,0,0,286.29,590.9Z"/><path class="cls-4" d="M305.33,595.42a3.83,3.83,0,0,1-2.92,1.18,3.06,3.06,0,0,1-3.2-3.05,2.91,2.91,0,0,1,3.2-2.93,3.74,3.74,0,0,1,2.92,1.12v-1.27c0-.94-.8-1.55-2-1.55a3.86,3.86,0,0,0-2.69,1.09l-.91-1.62a6,6,0,0,1,4-1.45c2.09,0,4,.84,4,3.49v5.94h-2.42Zm0-2.4a2.43,2.43,0,0,0-1.95-.8c-.95,0-1.73.49-1.73,1.39s.78,1.35,1.73,1.35a2.4,2.4,0,0,0,1.95-.8Z"/><path class="cls-4" d="M316.36,590.81a1.5,1.5,0,0,0-1.7-1.72,2.62,2.62,0,0,0-2.09,1.09v6.19h-2.42v-9.2h2.42v1.2a4.19,4.19,0,0,1,3.22-1.43,2.68,2.68,0,0,1,3,2.94v6.49h-2.42Z"/><path class="cls-4" d="M327.5,595.19a3.55,3.55,0,0,1-2.84,1.41c-2.32,0-4.07-1.75-4.07-4.82s1.73-4.84,4.07-4.84a3.55,3.55,0,0,1,2.84,1.41v-4.69h2.44v12.71H327.5Zm0-5.05a2.62,2.62,0,0,0-2.09-1,2.71,2.71,0,0,0,0,5.36,2.62,2.62,0,0,0,2.09-1.05Z"/><path class="cls-4" d="M342,591.82h-2v4.55h-2.71V583.66h6a4,4,0,0,1,4.27,4.1,3.64,3.64,0,0,1-2.78,3.77l2.86,4.84h-3.11Zm.86-5.83H340v3.5h2.84a1.76,1.76,0,1,0,0-3.5Z"/><path class="cls-4" d="M349.22,584.37a1.45,1.45,0,1,1,1.45,1.45A1.46,1.46,0,0,1,349.22,584.37Zm.25,2.8h2.42v9.2h-2.42Z"/><path class="cls-4" d="M354.53,593.48a5.28,5.28,0,0,0,3.19,1.26c1,0,1.54-.37,1.54-.94s-.8-.88-1.85-1.09c-1.58-.3-3.62-.68-3.62-2.87,0-1.55,1.36-2.9,3.77-2.9a5.83,5.83,0,0,1,3.72,1.26l-1,1.66a3.88,3.88,0,0,0-2.73-1.07c-.87,0-1.44.32-1.44.86s.72.78,1.75,1c1.58.3,3.7.72,3.7,3,0,1.68-1.43,3-4,3a6.16,6.16,0,0,1-4.11-1.43Z"/><path class="cls-4" d="M366.9,592.83,365.8,594v2.36h-2.43V583.66h2.43v7.61l3.48-4.1h3l-3.64,4.17,3.75,5h-3Z"/><path class="cls-15" d="M446,515.08a282.6,282.6,0,0,0,120.37-231.6c0-108.08-60.6-202-149.68-249.65a283.4,283.4,0,0,0-266-.25C61.37,81.15.55,175.21.55,283.48A282.62,282.62,0,0,0,122,515.83"/><polyline class="cls-15" points="445.19 516.88 445.19 614.55 121.74 614.55 121.74 515.71"/></g></g></svg>